<?xml version="1.0" encoding="utf-8"?>
<!-- Generator: Adobe Illustrator 15.0.0, SVG Export Plug-In . SVG Version: 6.00 Build 0)  -->
<!DOCTYPE svg PUBLIC "-//W3C//DTD SVG 1.1//EN" "http://www.w3.org/Graphics/SVG/1.1/DTD/svg11.dtd">
<svg version="1.1" id="Layer_1" xmlns="http://www.w3.org/2000/svg" xmlns:xlink="http://www.w3.org/1999/xlink" x="0px" y="0px"
	 width="88.362px" height="35.07px" viewBox="0 0 88.362 35.07" enable-background="new 0 0 88.362 35.07" xml:space="preserve">
<linearGradient id="SVGID_1_" gradientUnits="userSpaceOnUse" x1="17.9067" y1="42.8188" x2="68.5508" y2="-7.8252">
	<stop  offset="0" style="stop-color:#00AEEF"/>
	<stop  offset="1" style="stop-color:#72BF44"/>
</linearGradient>
<path fill="url(#SVGID_1_)" d="M27.828,26.839c-0.413-0.089-0.82-0.242-1.205-0.464c-1.96-1.131-2.646-3.621-1.558-5.593
	c0.027-0.047,0.055-0.094,0.081-0.14c0.003-0.006,0.006-0.012,0.011-0.018l-0.001-0.002c0.399-0.716,0.665-1.516,0.761-2.368
	c0-0.009,0.002-0.018,0.003-0.026c0.001-0.017,0.004-0.032,0.006-0.048h-0.003c0.001-0.022,0.003-0.043,0.003-0.064
	c0-0.642-0.517-1.162-1.157-1.167v-0.001h-4.42c-0.645,0-1.167,0.523-1.167,1.168c0,0.645,0.522,1.167,1.167,1.167
	c0,0,0.001-0.001,0.002-0.001v0.001h2.879c-0.649,1.346-2.027,2.275-3.622,2.275c-2.221,0-4.022-1.801-4.022-4.022
	c0-2.222,1.801-4.023,4.022-4.023c1.482,0,2.775,0.802,3.472,1.995c0.203,0.346,0.577,0.578,1.007,0.578
	c0.645,0,1.167-0.522,1.167-1.167c0-0.231-0.071-0.446-0.188-0.626c-1.09-1.973-0.404-4.464,1.557-5.596
	c0.385-0.223,0.791-0.375,1.204-0.464c1.251-0.147,2.418-0.862,3.096-2.037c1.141-1.975,0.464-4.501-1.511-5.641
	c-1.975-1.141-4.501-0.464-5.642,1.511c-0.677,1.175-0.713,2.543-0.215,3.7c0.13,0.402,0.201,0.83,0.201,1.275
	c0,2.269-1.821,4.11-4.081,4.146c-0.022,0-0.044-0.001-0.067-0.001c-0.026,0-0.052,0.001-0.078,0.001
	c-2.255-0.042-4.07-1.881-4.07-4.146c0-0.445,0.072-0.873,0.201-1.275c0.498-1.157,0.461-2.525-0.216-3.7
	c-1.141-1.975-3.666-2.652-5.641-1.511C7.83,1.694,7.152,4.22,8.292,6.195c0.679,1.174,1.847,1.89,3.097,2.037
	c0.413,0.088,0.819,0.241,1.205,0.464c1.943,1.123,2.635,3.58,1.584,5.545c-0.045,0.074-0.087,0.15-0.129,0.226
	c-1.173,1.902-3.654,2.539-5.603,1.413c-0.403-0.231-0.747-0.524-1.038-0.855c-0.755-0.983-1.942-1.618-3.278-1.618
	c-2.28,0-4.13,1.849-4.13,4.129s1.85,4.129,4.13,4.129c1.336,0,2.523-0.635,3.278-1.619c0.291-0.331,0.635-0.622,1.038-0.855
	c1.949-1.125,4.429-0.488,5.602,1.414c0.043,0.076,0.085,0.151,0.13,0.226c1.05,1.965,0.359,4.423-1.584,5.545
	c-0.386,0.223-0.792,0.375-1.205,0.463c-1.25,0.147-2.417,0.863-3.096,2.037c-1.141,1.976-0.463,4.501,1.511,5.642
	c1.975,1.141,4.5,0.464,5.641-1.511c0.678-1.175,0.714-2.543,0.216-3.7c-0.129-0.402-0.201-0.83-0.201-1.275
	c0-2.264,1.815-4.104,4.07-4.146c0.026,0.001,0.052,0.002,0.078,0.002c0.027,0,0.054,0,0.081-0.002
	c2.254,0.044,4.068,1.882,4.068,4.146c0,0.445-0.071,0.873-0.201,1.275c-0.499,1.157-0.462,2.525,0.216,3.7
	c1.14,1.976,3.666,2.652,5.641,1.512c1.976-1.141,2.652-3.667,1.511-5.643C30.247,27.701,29.079,26.987,27.828,26.839z
	 M33.641,21.183h-3.162v-2.597h2.803c0.819,0,1.247-0.598,1.247-1.179c0-0.599-0.411-1.179-1.247-1.179h-2.803v-2.495h3.008
	c0.803,0,1.213-0.599,1.213-1.179c0-0.598-0.393-1.18-1.213-1.18H29.25c-0.906,0-1.333,0.632-1.333,1.487v9.397
	c0,0.769,0.563,1.282,1.315,1.282h4.409c0.803,0,1.213-0.597,1.213-1.179C34.854,21.765,34.461,21.183,33.641,21.183z
	 M41.799,17.048l3.23-3.177c0.563-0.563,0.837-0.923,0.837-1.367c0-0.735-0.615-1.231-1.265-1.231c-0.478,0-0.803,0.274-0.991,0.479
	l-4.203,4.477v-3.69c0-0.787-0.546-1.265-1.282-1.265c-0.769,0-1.281,0.564-1.281,1.265v9.876c0,0.752,0.547,1.23,1.281,1.23
	c0.769,0,1.282-0.564,1.282-1.23v-4.358l4.426,4.785c0.479,0.513,0.803,0.803,1.298,0.803c0.702,0,1.333-0.375,1.333-1.179
	c0-0.513-0.325-0.89-0.718-1.299L41.799,17.048z M87.08,11.273c-0.735,0-1.282,0.479-1.282,1.333v6.459h-0.035l-5.417-7.229
	c-0.222-0.308-0.752-0.564-1.077-0.564c-0.735,0-1.281,0.479-1.281,1.333v9.705c0,0.855,0.545,1.333,1.281,1.333
	c0.735,0,1.282-0.478,1.282-1.333v-6.373h0.034l5.417,7.143c0.239,0.308,0.751,0.564,1.077,0.564c0.734,0,1.281-0.478,1.281-1.333
	v-9.705C88.361,11.751,87.813,11.273,87.08,11.273z M74.717,11.273c-0.734,0-1.283,0.479-1.283,1.333v9.705
	c0,0.855,0.548,1.333,1.283,1.333c0.734,0,1.282-0.478,1.282-1.333v-9.705C75.999,11.751,75.451,11.273,74.717,11.273z
	 M65.094,11.108c-3.507,0-6.351,2.843-6.351,6.35c0,3.508,2.843,6.351,6.351,6.351c3.508,0,6.351-2.843,6.351-6.351
	C71.445,13.952,68.602,11.108,65.094,11.108z M65.094,21.481c-2.222,0-4.022-1.801-4.022-4.023c0-2.221,1.8-4.022,4.022-4.022
	s4.021,1.801,4.021,4.022C69.116,19.681,67.316,21.481,65.094,21.481z M53.41,17.048l3.23-3.177
	c0.564-0.563,0.837-0.923,0.837-1.367c0-0.735-0.615-1.231-1.265-1.231c-0.479,0-0.803,0.274-0.991,0.479l-4.204,4.477v-3.69
	c0-0.787-0.546-1.265-1.281-1.265c-0.77,0-1.282,0.564-1.282,1.265v9.876c0,0.752,0.547,1.23,1.282,1.23
	c0.768,0,1.281-0.564,1.281-1.23v-4.358l4.426,4.785c0.479,0.513,0.803,0.803,1.299,0.803c0.701,0,1.332-0.375,1.332-1.179
	c0-0.513-0.324-0.89-0.717-1.299L53.41,17.048z"/>
</svg>
