<?xml version="1.0" encoding="utf-8"?>
<!-- Generator: Adobe Illustrator 15.0.0, SVG Export Plug-In . SVG Version: 6.00 Build 0)  -->
<!DOCTYPE svg PUBLIC "-//W3C//DTD SVG 1.1//EN" "http://www.w3.org/Graphics/SVG/1.1/DTD/svg11.dtd">
<svg version="1.1" id="Layer_1" xmlns="http://www.w3.org/2000/svg" xmlns:xlink="http://www.w3.org/1999/xlink" x="0px" y="0px"
	 width="75.104px" height="54.933px" viewBox="0 0 75.104 54.933" enable-background="new 0 0 75.104 54.933" xml:space="preserve">
<g>
	<g>
		<path fill="#2BB673" d="M14.658,43.922c0-0.854,0.427-1.486,1.333-1.486h4.238c0.82,0,1.213,0.581,1.213,1.18
			c0,0.58-0.41,1.179-1.213,1.179h-3.007v2.495h2.802c0.838,0,1.248,0.58,1.248,1.179c0,0.581-0.427,1.179-1.248,1.179h-2.802v2.598
			h3.161c0.82,0,1.213,0.581,1.213,1.179c0,0.581-0.411,1.179-1.213,1.179h-4.408c-0.752,0-1.316-0.512-1.316-1.281V43.922z"/>
		<path fill="#2BB673" d="M23.586,43.597c0-0.701,0.512-1.264,1.281-1.264c0.735,0,1.282,0.479,1.282,1.264v3.691l4.204-4.477
			c0.188-0.205,0.512-0.479,0.991-0.479c0.649,0,1.265,0.494,1.265,1.229c0,0.444-0.273,0.804-0.837,1.367l-3.229,3.179l3.947,4.117
			c0.393,0.41,0.718,0.787,0.718,1.299c0,0.803-0.632,1.18-1.333,1.18c-0.496,0-0.82-0.291-1.299-0.803l-4.426-4.785v4.357
			c0,0.666-0.513,1.23-1.282,1.23c-0.735,0-1.281-0.479-1.281-1.23V43.597z"/>
		<path fill="#2BB673" d="M35.197,43.597c0-0.701,0.512-1.264,1.282-1.264c0.735,0,1.281,0.479,1.281,1.264v3.691l4.204-4.477
			c0.188-0.205,0.512-0.479,0.99-0.479c0.65,0,1.266,0.494,1.266,1.229c0,0.444-0.274,0.804-0.838,1.367l-3.23,3.179l3.948,4.117
			c0.393,0.41,0.718,0.787,0.718,1.299c0,0.803-0.633,1.18-1.333,1.18c-0.495,0-0.82-0.291-1.299-0.803l-4.426-4.785v4.357
			c0,0.666-0.513,1.23-1.281,1.23c-0.735,0-1.282-0.479-1.282-1.23V43.597z"/>
		<path fill="#2BB673" d="M60.178,43.666c0-0.854,0.545-1.332,1.281-1.332c0.734,0,1.281,0.479,1.281,1.332v9.706
			c0,0.854-0.547,1.333-1.281,1.333c-0.736,0-1.281-0.479-1.281-1.333V43.666z"/>
		<path fill="#2BB673" d="M64.731,43.666c0-0.854,0.547-1.332,1.281-1.332c0.324,0,0.854,0.256,1.076,0.562l5.416,7.229h0.035
			v-6.459c0-0.854,0.547-1.332,1.281-1.332c0.736,0,1.283,0.479,1.283,1.332v9.706c0,0.854-0.547,1.333-1.283,1.333
			c-0.324,0-0.838-0.257-1.076-0.564l-5.418-7.143h-0.033v6.374c0,0.854-0.547,1.333-1.281,1.333s-1.281-0.479-1.281-1.333V43.666z"
			/>
		<path fill="#2BB673" d="M12.668,49.16c0-0.641-0.516-1.16-1.156-1.166v-0.001H7.093l0,0l0,0c-0.645,0-1.167,0.522-1.167,1.167
			s0.523,1.168,1.167,1.168l0,0l0,0h2.88c-0.65,1.346-2.027,2.275-3.623,2.275c-2.222,0-4.022-1.801-4.022-4.022
			s1.8-4.022,4.022-4.022c1.465,0,2.746,0.785,3.449,1.955c0.197,0.367,0.584,0.618,1.03,0.618c0.645,0,1.167-0.522,1.167-1.167
			c0-0.266-0.089-0.51-0.239-0.707c-1.118-1.814-3.119-3.027-5.407-3.027C2.843,42.23,0,45.074,0,48.581
			c0,3.508,2.843,6.351,6.351,6.351c3.267,0,5.956-2.467,6.31-5.638C12.666,49.25,12.668,49.205,12.668,49.16z"/>
		<path fill="#2BB673" d="M51.837,42.168c-3.508,0-6.352,2.844-6.352,6.351c0,3.508,2.844,6.351,6.352,6.351
			c3.507,0,6.349-2.843,6.349-6.351C58.186,45.011,55.344,42.168,51.837,42.168z M51.837,52.541c-2.222,0-4.022-1.801-4.022-4.022
			c0-2.221,1.801-4.022,4.022-4.022c2.22,0,4.021,1.802,4.021,4.022C55.858,50.74,54.057,52.541,51.837,52.541z"/>
	</g>
	<path fill="#2BB673" d="M48.847,28.875c-0.678-1.174-1.846-1.889-3.096-2.036c-0.414-0.089-0.82-0.241-1.206-0.464
		c-1.96-1.132-2.646-3.621-1.558-5.595c0.028-0.046,0.055-0.093,0.081-0.14c0.004-0.006,0.008-0.012,0.012-0.018l-0.001-0.001
		c0.398-0.716,0.665-1.517,0.761-2.369c0.001-0.009,0.002-0.017,0.003-0.026c0.002-0.016,0.004-0.031,0.006-0.048h-0.003
		c0.001-0.021,0.003-0.042,0.003-0.063c0-0.642-0.517-1.162-1.156-1.167v0h-4.419v0c0,0-0.001,0-0.002,0
		c-0.645,0-1.167,0.522-1.167,1.168c0,0.644,0.522,1.166,1.167,1.166c0.001,0,0.001,0,0.002,0l0,0h2.88
		c-0.65,1.348-2.027,2.276-3.623,2.276c-2.222,0-4.022-1.801-4.022-4.022c0-2.222,1.8-4.022,4.022-4.022
		c1.482,0,2.775,0.802,3.472,1.995c0.203,0.346,0.577,0.578,1.007,0.578c0.646,0,1.167-0.522,1.167-1.168
		c0-0.232-0.07-0.445-0.188-0.626c-1.09-1.973-0.404-4.463,1.556-5.596c0.386-0.222,0.792-0.375,1.204-0.463
		c1.252-0.147,2.42-0.862,3.098-2.037c1.14-1.975,0.463-4.5-1.512-5.641c-1.976-1.141-4.5-0.464-5.642,1.512
		c-0.678,1.174-0.713,2.543-0.216,3.7c0.131,0.402,0.201,0.83,0.201,1.274c0,2.269-1.821,4.11-4.081,4.146
		c-0.022,0-0.044-0.002-0.067-0.002c-0.026,0-0.052,0.002-0.078,0.002c-2.254-0.042-4.07-1.881-4.07-4.146
		c0-0.445,0.071-0.873,0.201-1.274c0.498-1.157,0.462-2.526-0.216-3.7c-1.14-1.976-3.666-2.652-5.641-1.512
		s-2.652,3.666-1.511,5.641c0.678,1.175,1.846,1.89,3.096,2.037c0.413,0.088,0.819,0.241,1.204,0.463
		c1.944,1.123,2.635,3.581,1.585,5.545c-0.045,0.074-0.088,0.149-0.13,0.225c-1.173,1.902-3.654,2.539-5.603,1.414
		c-0.403-0.233-0.748-0.525-1.039-0.856c-0.755-0.983-1.942-1.619-3.277-1.619c-2.281,0-4.129,1.849-4.129,4.13
		s1.849,4.128,4.129,4.128c1.336,0,2.524-0.635,3.278-1.619c0.291-0.33,0.635-0.623,1.038-0.854
		c1.948-1.124,4.429-0.489,5.602,1.413c0.042,0.076,0.085,0.152,0.13,0.227c1.05,1.965,0.359,4.422-1.584,5.545
		c-0.385,0.223-0.792,0.375-1.205,0.464c-1.25,0.147-2.418,0.862-3.095,2.036c-1.141,1.977-0.464,4.501,1.511,5.642
		c1.975,1.14,4.5,0.464,5.641-1.512c0.678-1.175,0.714-2.544,0.216-3.7c-0.13-0.401-0.201-0.83-0.201-1.275
		c0-2.264,1.815-4.104,4.07-4.146c0.026,0.001,0.052,0.002,0.078,0.002c0.027,0,0.053-0.001,0.081-0.002
		c2.254,0.043,4.067,1.883,4.067,4.146c0,0.445-0.07,0.874-0.201,1.275c-0.498,1.156-0.462,2.525,0.216,3.7
		c1.141,1.976,3.666,2.651,5.642,1.513C49.31,33.376,49.986,30.851,48.847,28.875z"/>
</g>
</svg>
