<?xml version="1.0" encoding="utf-8"?>
<!-- Generator: Adobe Illustrator 15.0.0, SVG Export Plug-In . SVG Version: 6.00 Build 0)  -->
<!DOCTYPE svg PUBLIC "-//W3C//DTD SVG 1.1//EN" "http://www.w3.org/Graphics/SVG/1.1/DTD/svg11.dtd">
<svg version="1.1" id="Layer_1" xmlns="http://www.w3.org/2000/svg" xmlns:xlink="http://www.w3.org/1999/xlink" x="0px" y="0px"
	 width="80.929px" height="90.162px" viewBox="0 0 80.929 90.162" enable-background="new 0 0 80.929 90.162" xml:space="preserve">
<path fill="#FFFFFF" d="M79.506,74.236c-1.743-3.019-4.744-4.857-7.958-5.236c-1.062-0.228-2.109-0.621-3.1-1.193
	c-5.039-2.909-6.804-9.309-4.004-14.382c0.07-0.118,0.139-0.237,0.205-0.358c0.011-0.016,0.021-0.031,0.031-0.047l-0.004-0.002
	c1.027-1.841,1.711-3.9,1.957-6.092c0.003-0.021,0.008-0.044,0.008-0.066c0.006-0.041,0.012-0.082,0.016-0.123l-0.008-0.001
	c0.002-0.054,0.008-0.109,0.008-0.165c0-1.647-1.33-2.984-2.975-3v-0.001H52.324v0c-0.002,0-0.004,0-0.006,0
	c-1.656,0-3.001,1.344-3.001,3.001c0,1.658,1.345,3.002,3.001,3.002c0.002,0,0.004,0,0.006,0l0,0h7.403
	c-1.671,3.461-5.212,5.85-9.313,5.85c-5.711,0-10.341-4.629-10.341-10.34c0-5.711,4.63-10.34,10.341-10.34
	c3.809,0,7.133,2.062,8.928,5.128c0.523,0.888,1.483,1.486,2.588,1.486c1.656,0,3.002-1.344,3.002-3.001
	c0-0.596-0.184-1.145-0.484-1.612c-2.802-5.073-1.039-11.475,4.002-14.386c0.99-0.571,2.035-0.964,3.096-1.192
	c3.217-0.378,6.219-2.217,7.962-5.237c2.933-5.078,1.192-11.571-3.886-14.502C70.542-1.508,64.048,0.232,61.115,5.31
	c-1.742,3.02-1.832,6.539-0.553,9.513c0.334,1.033,0.516,2.133,0.516,3.277c0,5.831-4.682,10.566-10.491,10.66
	c-0.058,0-0.114-0.005-0.173-0.005c-0.068,0-0.135,0.004-0.201,0.005c-5.797-0.108-10.463-4.837-10.463-10.66
	c0-1.144,0.182-2.245,0.516-3.277c1.281-2.974,1.189-6.494-0.555-9.513c-2.933-5.078-9.425-6.818-14.504-3.885
	c-5.078,2.931-6.817,9.424-3.886,14.502c1.744,3.02,4.747,4.859,7.962,5.237c1.061,0.228,2.105,0.621,3.096,1.192
	c4.998,2.886,6.773,9.204,4.072,14.257c-0.116,0.189-0.225,0.384-0.333,0.58c-3.017,4.89-9.395,6.526-14.404,3.634
	c-1.036-0.597-1.923-1.349-2.67-2.2c-1.941-2.529-4.993-4.161-8.427-4.161C4.753,34.465,0,39.218,0,45.081
	c0,5.864,4.753,10.616,10.617,10.616c3.436,0,6.488-1.632,8.428-4.162c0.748-0.85,1.634-1.602,2.669-2.197
	c5.009-2.893,11.387-1.258,14.403,3.633c0.108,0.195,0.218,0.391,0.335,0.58c2.7,5.053,0.924,11.371-4.074,14.256
	c-0.991,0.572-2.037,0.966-3.098,1.193c-3.215,0.379-6.217,2.217-7.959,5.236c-2.932,5.078-1.193,11.57,3.885,14.502
	c5.079,2.932,11.571,1.192,14.504-3.887c1.744-3.018,1.835-6.537,0.555-9.512c-0.333-1.033-0.516-2.134-0.516-3.277
	c0-5.822,4.667-10.552,10.463-10.659c0.066,0.001,0.133,0.005,0.201,0.005s0.139-0.004,0.207-0.004
	c5.795,0.111,10.457,4.838,10.457,10.658c0,1.144-0.182,2.244-0.516,3.278c-1.28,2.974-1.189,6.493,0.555,9.511
	c2.932,5.079,9.426,6.818,14.504,3.887S82.439,79.314,79.506,74.236z"/>
</svg>
