<?xml version="1.0" encoding="utf-8"?>
<!-- Generator: Adobe Illustrator 15.0.0, SVG Export Plug-In . SVG Version: 6.00 Build 0)  -->
<!DOCTYPE svg PUBLIC "-//W3C//DTD SVG 1.1//EN" "http://www.w3.org/Graphics/SVG/1.1/DTD/svg11.dtd">
<svg version="1.1" id="Layer_1" xmlns="http://www.w3.org/2000/svg" xmlns:xlink="http://www.w3.org/1999/xlink" x="0px" y="0px"
	 width="52.172px" height="46.766px" viewBox="0 0 52.172 46.766" enable-background="new 0 0 52.172 46.766" xml:space="preserve">
<path fill="#FFFFFF" d="M51.508,20.649L41.164,2.732C40.279,1.2,38.2,0,36.431,0H15.741c-1.769,0-3.848,1.2-4.733,2.732
	L0.663,20.649c-0.884,1.532-0.884,3.933,0,5.465l10.345,17.918c0.885,1.532,2.964,2.732,4.733,2.732h20.689
	c1.769,0,3.848-1.2,4.733-2.732l10.344-17.918C52.393,24.582,52.393,22.182,51.508,20.649z M49.949,25.214L39.605,43.132
	c-0.564,0.977-2.047,1.833-3.175,1.833H15.741c-1.127,0-2.611-0.856-3.174-1.833L2.222,25.214c-0.563-0.976-0.563-2.688,0-3.665
	L12.567,3.633C13.13,2.656,14.614,1.8,15.741,1.8h20.689c1.127,0,2.611,0.856,3.174,1.833l10.344,17.916
	C50.513,22.525,50.513,24.238,49.949,25.214z M33.08,14.564c0.386-0.223,0.792-0.375,1.205-0.463
	c1.251-0.147,2.419-0.862,3.097-2.037c1.14-1.975,0.463-4.501-1.512-5.641c-1.976-1.141-4.5-0.464-5.642,1.512
	c-0.678,1.174-0.713,2.543-0.216,3.7c0.13,0.402,0.201,0.83,0.201,1.274c0,2.269-1.821,4.11-4.081,4.147
	c-0.022-0.001-0.044-0.002-0.067-0.002c-0.026,0-0.052,0.001-0.078,0.001c-2.254-0.042-4.07-1.881-4.07-4.146
	c0-0.444,0.071-0.873,0.201-1.274c0.498-1.156,0.462-2.526-0.216-3.7c-1.14-1.976-3.666-2.652-5.641-1.512
	c-1.975,1.14-2.652,3.666-1.511,5.641c0.678,1.175,1.846,1.89,3.096,2.037c0.413,0.088,0.819,0.241,1.204,0.463
	c1.944,1.122,2.635,3.581,1.585,5.546c-0.045,0.074-0.088,0.149-0.13,0.225c-1.173,1.902-3.654,2.539-5.603,1.414
	c-0.403-0.232-0.748-0.525-1.039-0.855c-0.755-0.983-1.942-1.619-3.277-1.619c-2.281,0-4.129,1.85-4.129,4.13s1.849,4.13,4.129,4.13
	c1.336,0,2.524-0.637,3.278-1.621c0.291-0.33,0.635-0.621,1.038-0.854c1.948-1.125,4.429-0.488,5.602,1.413
	c0.042,0.077,0.085,0.152,0.13,0.226c1.05,1.966,0.359,4.423-1.584,5.545c-0.385,0.223-0.792,0.376-1.205,0.465
	c-1.25,0.146-2.418,0.861-3.095,2.036c-1.141,1.976-0.464,4.501,1.511,5.641c1.975,1.142,4.5,0.464,5.641-1.512
	c0.678-1.174,0.714-2.542,0.216-3.699c-0.13-0.401-0.201-0.831-0.201-1.275c0-2.265,1.815-4.104,4.07-4.146
	c0.026,0,0.052,0.002,0.078,0.002c0.027,0,0.053-0.002,0.081-0.002c2.254,0.043,4.067,1.883,4.067,4.146
	c0,0.444-0.071,0.874-0.201,1.275c-0.498,1.157-0.462,2.525,0.216,3.699c1.141,1.976,3.666,2.653,5.642,1.513
	c1.975-1.141,2.651-3.666,1.512-5.642c-0.678-1.175-1.846-1.889-3.096-2.036c-0.413-0.089-0.819-0.242-1.206-0.465
	c-1.96-1.132-2.646-3.621-1.557-5.594c0.028-0.046,0.054-0.092,0.081-0.14c0.004-0.007,0.008-0.013,0.012-0.018l-0.001-0.001
	c0.399-0.717,0.666-1.518,0.761-2.369c0.001-0.01,0.002-0.018,0.003-0.027c0.002-0.016,0.004-0.031,0.006-0.047H32.38
	c0.001-0.021,0.003-0.043,0.003-0.064c0-0.642-0.517-1.16-1.156-1.167v-0.001h-4.419v0.001c0,0-0.001-0.001-0.002-0.001
	c-0.645,0-1.167,0.523-1.167,1.168s0.522,1.168,1.167,1.168h2.882c-0.65,1.346-2.027,2.275-3.623,2.275
	c-2.222,0-4.022-1.801-4.022-4.022s1.8-4.022,4.022-4.022c1.482,0,2.774,0.803,3.473,1.995c0.203,0.345,0.577,0.577,1.006,0.577
	c0.645,0,1.167-0.521,1.167-1.167c0-0.231-0.071-0.446-0.188-0.627C30.434,18.188,31.12,15.696,33.08,14.564z"/>
</svg>
