<svg xmlns="http://www.w3.org/2000/svg" fill="none" viewBox="0 0 330 168">
  <rect width="247" height="149" x="83" y="19" fill="#E6E6E6" rx="10"/>
  <rect width="246.5" height="148.5" x=".25" y=".25" fill="#F3F3F3" stroke="#C4C4C4" stroke-width=".5" rx="9.75"/>
  <path fill="#EE0005" d="M205.5 121.81c3.82 0 6.91-2.86 6.91-6.4 0-3.54-3.1-6.41-6.9-6.41-3.82 0-6.92 2.87-6.92 6.4 0 3.55 3.1 6.41 6.91 6.41z"/>
  <path fill="#0098E2" d="M214.09 121.81c3.82 0 6.91-2.86 6.91-6.4 0-3.54-3.1-6.41-6.91-6.41-3.82 0-6.91 2.87-6.91 6.4 0 3.55 3.1 6.41 6.91 6.41z"/>
  <path fill="#6C69BF" d="M207.18 115.4a6.24 6.24 0 0 0 2.62 5.03 6.24 6.24 0 0 0 2.61-5.02 6.24 6.24 0 0 0-2.61-5.02 6.24 6.24 0 0 0-2.62 5.02z"/>
  <path fill="#00B187" d="M37.08 17.22h-.82V16h-3.28v1.22h-.83l-.03-1.91h.4a2 2 0 0 0 .48-.83c.12-.37.2-.79.23-1.25l.13-2.2h3.13v4.28h.64l-.05 1.91zm-3.58-1.91h2.13v-3.59h-1.45l-.08 1.4a4.59 4.59 0 0 1-.6 2.19zm6.4.69a1.28 1.28 0 0 1-.09-.35 1.3 1.3 0 0 1-.97.42c-.37 0-.68-.1-.91-.32a1.02 1.02 0 0 1-.35-.79c0-.39.14-.7.44-.9.29-.21.7-.32 1.25-.32h.51v-.24c0-.2-.05-.35-.16-.46-.1-.12-.27-.17-.49-.17a.73.73 0 0 0-.46.14.43.43 0 0 0-.18.36h-.83c0-.2.06-.4.2-.57.13-.18.32-.32.55-.42.23-.1.49-.15.77-.15.43 0 .78.11 1.04.33.25.22.39.52.4.92v1.67c0 .33.04.6.13.8V16h-.84zm-.9-.6c.16 0 .31-.04.45-.12a.8.8 0 0 0 .33-.32v-.7h-.45c-.3 0-.53.06-.69.16a.52.52 0 0 0-.23.46c0 .16.05.29.16.38.1.1.25.14.42.14zm5.62.6h-.83v-1.5h-1.44V16h-.83v-3.7h.83v1.54h1.44V12.3h.83V16zm4.02 0h-.84v-1.5h-1.43V16h-.83v-3.7h.83v1.54h1.43V12.3h.84V16zm1.78-2.52h.8c.31 0 .58.05.8.15a1.15 1.15 0 0 1 .7 1.1c0 .39-.14.7-.41.92a1.6 1.6 0 0 1-1.07.35h-1.65v-3.7h.83v1.18zM54.16 16h-.83v-3.7h.83V16zm-3.74-1.86v1.2h.8a.7.7 0 0 0 .48-.15c.12-.1.18-.25.18-.44a.57.57 0 0 0-.17-.44.65.65 0 0 0-.47-.17h-.82zm6.36 1.93c-.52 0-.95-.17-1.28-.5a1.81 1.81 0 0 1-.49-1.32v-.1c0-.38.07-.7.22-1a1.59 1.59 0 0 1 1.46-.92c.5 0 .89.16 1.16.49.28.32.42.77.42 1.36v.33h-2.42c.03.3.13.55.3.73.18.18.41.27.68.27.38 0 .7-.16.93-.47l.45.43c-.15.22-.35.4-.6.52-.24.12-.52.18-.83.18zm-.1-3.17a.7.7 0 0 0-.55.24c-.14.16-.23.38-.27.67h1.59v-.07a1 1 0 0 0-.23-.62.7.7 0 0 0-.54-.22zm6.78.41c0 .17-.05.32-.15.46-.1.13-.24.24-.42.33.43.14.64.43.64.85 0 .34-.14.61-.42.82-.27.2-.64.3-1.1.3-.29 0-.54-.05-.78-.14-.23-.1-.41-.23-.54-.4-.13-.18-.2-.39-.2-.63h.83c0 .15.07.28.2.38.14.1.3.15.51.15.2 0 .37-.04.49-.14s.18-.22.18-.37c0-.18-.06-.31-.16-.39-.1-.08-.27-.12-.49-.12h-.59v-.6h.61c.38 0 .56-.15.56-.46a.42.42 0 0 0-.16-.35.7.7 0 0 0-.44-.12.76.76 0 0 0-.46.13.4.4 0 0 0-.19.34h-.83c0-.32.14-.6.41-.8.28-.2.62-.31 1.05-.31.45 0 .81.09 1.07.28.25.18.38.45.38.8zM66.44 16a1.28 1.28 0 0 1-.1-.35 1.3 1.3 0 0 1-.96.42c-.38 0-.68-.1-.91-.32a1.02 1.02 0 0 1-.35-.79c0-.39.14-.7.43-.9.3-.21.72-.32 1.26-.32h.51v-.24c0-.2-.05-.35-.16-.46-.1-.12-.27-.17-.49-.17a.73.73 0 0 0-.46.14.43.43 0 0 0-.19.36h-.83c0-.2.07-.4.2-.57.14-.18.32-.32.55-.42.23-.1.5-.15.78-.15.43 0 .78.11 1.03.33.26.22.4.52.4.92v1.67c0 .33.05.6.14.8V16h-.85zm-.91-.6c.16 0 .32-.04.46-.12a.8.8 0 0 0 .33-.32v-.7h-.45c-.3 0-.54.06-.7.16a.52.52 0 0 0-.22.46c0 .16.05.29.15.38.11.1.25.14.43.14zm3.33-3.1v3.04H70V12.3h.83v3.04H72V12.3h.83v3.04h.63l-.07 1.76h-.75V16h-4.61v-3.7h.83zm7.53 0h.82V16h-.82v-2.47L74.94 16h-.83v-3.7h.83v2.47l1.45-2.47zm2.54 0v3.04h1.16V12.3h.83v3.04h1.16V12.3h.82v3.04h.64l-.07 1.76h-.76V16h-4.6v-3.7h.82zm6.79 3.77c-.53 0-.95-.17-1.28-.5a1.81 1.81 0 0 1-.49-1.32v-.1c0-.38.07-.7.21-1a1.59 1.59 0 0 1 1.46-.92c.5 0 .9.16 1.17.49.28.32.41.77.41 1.36v.33H84.8c.02.3.12.55.3.73.18.18.4.27.68.27.38 0 .69-.16.93-.47l.45.43c-.15.22-.35.4-.6.52s-.52.18-.83.18zm-.1-3.17a.7.7 0 0 0-.55.24c-.14.16-.23.38-.27.67h1.58v-.07a1 1 0 0 0-.22-.62.7.7 0 0 0-.54-.22zm5.36 3.1h-.83v-1.5h-1.44V16h-.83v-3.7h.83v1.54h1.44V12.3h.83V16zm1.78-2.52h.82c.3 0 .57.05.8.15a1.15 1.15 0 0 1 .68 1.1c0 .39-.13.7-.4.92a1.6 1.6 0 0 1-1.08.35h-1.65v-3.7h.83v1.18zM96.51 16h-.83v-3.7h.83V16zm-3.75-1.86v1.2h.81a.7.7 0 0 0 .48-.15c.12-.1.18-.25.18-.44a.57.57 0 0 0-.17-.44.65.65 0 0 0-.47-.17h-.83zm9.62 1.86h-.83v-3.03h-1.44V16h-.83v-3.7h3.1V16zm.73-1.88c0-.37.07-.7.22-.98.14-.3.34-.52.6-.67.26-.16.56-.24.9-.24.5 0 .9.16 1.21.49.31.32.48.74.5 1.27v.2c0 .36-.06.69-.2.98-.14.28-.34.5-.6.66-.26.16-.56.24-.9.24-.53 0-.95-.17-1.26-.52a2 2 0 0 1-.47-1.4v-.03zm.83.07c0 .38.08.68.24.9.15.2.37.32.65.32s.5-.11.66-.33c.15-.22.23-.54.23-.96 0-.38-.08-.67-.24-.9a.76.76 0 0 0-.65-.32c-.27 0-.49.1-.65.32a1.6 1.6 0 0 0-.24.97zm6.57 1.22c.21 0 .38-.07.52-.19a.62.62 0 0 0 .22-.44h.78c0 .23-.08.44-.21.64-.14.2-.32.36-.55.47-.23.12-.48.18-.75.18-.51 0-.92-.17-1.23-.5a2 2 0 0 1-.45-1.4v-.08c0-.56.15-1.01.45-1.35.3-.34.71-.5 1.23-.5.44 0 .8.12 1.07.38.28.25.43.6.44 1h-.78a.76.76 0 0 0-.22-.51.7.7 0 0 0-.52-.21c-.27 0-.47.1-.62.3-.14.19-.22.48-.22.88v.13c0 .4.07.7.22.9.14.2.35.3.62.3zm5.06-2.45h-1.2V16h-.83v-3.04h-1.19v-.66h3.22v.66zm2.71 3.04a1.25 1.25 0 0 1-.1-.35 1.3 1.3 0 0 1-.97.42c-.37 0-.67-.1-.9-.32a1.02 1.02 0 0 1-.36-.79c0-.39.15-.7.44-.9.3-.21.71-.32 1.26-.32h.5v-.24c0-.2-.05-.35-.15-.46-.11-.12-.27-.17-.5-.17a.73.73 0 0 0-.46.14.44.44 0 0 0-.18.36h-.83c0-.2.07-.4.2-.57.14-.18.32-.32.55-.42.23-.1.49-.15.78-.15.43 0 .77.11 1.03.33.26.22.39.52.4.92v1.67c0 .33.04.6.14.8V16h-.85zm-.91-.6c.16 0 .31-.04.46-.12a.8.8 0 0 0 .33-.32v-.7h-.45c-.3 0-.54.06-.7.16a.52.52 0 0 0-.23.46c0 .16.05.29.16.38.1.1.25.14.43.14zm5.62.6h-.83v-1.5h-1.44V16h-.83v-3.7h.83v1.54h1.44V12.3h.83V16zm.9-.66c.23-.26.39-.5.46-.73.08-.24.13-.53.15-.9l.05-1.4h2.56v3.03h.52v1.76h-.83V16h-2.38v1.1h-.84v-1.76h.31zm.98 0h1.41v-2.32h-.93l-.02.7a3.04 3.04 0 0 1-.46 1.62zm5.56.66a1.29 1.29 0 0 1-.1-.35 1.3 1.3 0 0 1-.97.42c-.37 0-.67-.1-.9-.32a1.02 1.02 0 0 1-.36-.79c0-.39.15-.7.44-.9.3-.21.71-.32 1.25-.32h.51v-.24c0-.2-.05-.35-.16-.46-.1-.12-.27-.17-.48-.17a.73.73 0 0 0-.47.14.43.43 0 0 0-.18.36h-.83c0-.2.06-.4.2-.57.13-.18.32-.32.55-.42.23-.1.49-.15.77-.15.44 0 .78.11 1.04.33.26.22.39.52.4.92v1.67c0 .33.04.6.14.8V16h-.85zm-.92-.6c.17 0 .32-.04.47-.12a.8.8 0 0 0 .32-.32v-.7h-.44c-.31 0-.54.06-.7.16a.52.52 0 0 0-.23.46c0 .16.05.29.16.38.1.1.25.14.42.14zm5.73-1.21c0 .57-.13 1.03-.39 1.37-.26.34-.6.5-1.04.5-.4 0-.73-.12-.98-.4v1.76H132V12.3h.77l.03.38c.25-.3.58-.45 1-.45.45 0 .8.17 1.06.5.25.34.38.81.38 1.4v.06zm-.82-.07c0-.37-.08-.67-.23-.88a.71.71 0 0 0-.63-.33c-.34 0-.58.14-.73.42v1.64c.15.3.4.44.74.44.27 0 .47-.11.62-.32.15-.22.23-.54.23-.97zm4.3-1.16h-1.2V16h-.83v-3.04h-1.19v-.66h3.22v.66zm1.89 1.85l.75-2.5h.88l-1.47 4.25c-.22.62-.6.93-1.15.93-.12 0-.25-.02-.4-.06v-.64l.16.01a.8.8 0 0 0 .47-.12c.11-.07.2-.2.26-.38l.12-.32-1.3-3.68h.9l.78 2.51zm4.8-.66V16h-.86v-4.98h1.9c.56 0 1 .15 1.32.44.33.29.5.67.5 1.15 0 .48-.17.86-.49 1.13-.31.28-.76.41-1.34.41h-1.03zm0-.7h1.04c.3 0 .54-.06.7-.2.17-.15.25-.36.25-.64a.86.86 0 0 0-.25-.64.94.94 0 0 0-.68-.25h-1.06v1.74zm7.41.93a1.8 1.8 0 0 1-.59 1.24 2 2 0 0 1-1.36.45c-.4 0-.75-.1-1.05-.28-.3-.2-.53-.46-.7-.8a2.88 2.88 0 0 1-.25-1.21v-.47c0-.47.08-.88.25-1.24a1.88 1.88 0 0 1 1.8-1.11c.54 0 .98.14 1.32.44.33.3.53.72.58 1.27h-.86c-.04-.36-.15-.62-.31-.78-.17-.15-.41-.23-.74-.23-.38 0-.66.13-.87.4-.2.28-.3.68-.3 1.22v.44c0 .53.1.94.28 1.23.2.28.48.42.85.42.34 0 .6-.08.77-.23.17-.15.28-.4.32-.76h.86zm1.69 1.62h-.86v-4.98h.86V16zm2.8 0v-4.98h1.48c.44 0 .83.1 1.17.3.34.2.6.47.79.83.19.36.28.77.28 1.24v.25c0 .47-.1.88-.28 1.24-.2.36-.46.64-.8.83-.35.2-.75.29-1.2.29h-1.43zm.87-4.28v3.59h.56c.46 0 .8-.14 1.05-.42.24-.29.37-.7.37-1.23v-.27c0-.54-.12-.96-.35-1.24-.24-.29-.58-.43-1.02-.43h-.6zm6.31 3a.6.6 0 0 0-.23-.5 2.74 2.74 0 0 0-.83-.37c-.4-.12-.72-.25-.96-.4-.45-.28-.68-.66-.68-1.11 0-.4.16-.74.49-1a2 2 0 0 1 1.27-.38c.35 0 .66.06.93.19.27.12.49.3.64.54.16.24.23.5.23.79h-.86a.77.77 0 0 0-.25-.61c-.16-.15-.39-.22-.7-.22-.28 0-.5.06-.65.18a.6.6 0 0 0-.23.5c0 .18.08.34.25.46.17.12.44.24.83.36.39.11.7.24.94.39.23.14.4.31.51.5.11.2.16.42.16.67 0 .42-.15.75-.47 1-.32.24-.75.36-1.3.36-.36 0-.69-.07-.99-.2a1.7 1.7 0 0 1-.7-.55c-.17-.24-.25-.51-.25-.82h.86c0 .28.1.5.28.65.19.16.46.23.8.23.3 0 .53-.06.68-.18a.6.6 0 0 0 .23-.48zm4.22 0a.6.6 0 0 0-.23-.5 2.76 2.76 0 0 0-.83-.37c-.4-.12-.72-.25-.96-.4-.45-.28-.68-.66-.68-1.11 0-.4.17-.74.5-1a2 2 0 0 1 1.27-.38c.34 0 .65.06.93.19.27.12.48.3.63.54.16.24.24.5.24.79h-.87a.77.77 0 0 0-.24-.61c-.16-.15-.4-.22-.7-.22-.28 0-.5.06-.66.18a.6.6 0 0 0-.23.5c0 .18.08.34.25.46.17.12.45.24.84.36.38.11.7.24.93.39.23.14.4.31.52.5.1.2.16.42.16.67 0 .42-.16.75-.48 1-.31.24-.75.36-1.29.36-.36 0-.7-.07-1-.2-.3-.13-.53-.32-.7-.55-.17-.24-.25-.51-.25-.82h.87c0 .28.09.5.28.65.18.16.45.23.8.23.3 0 .53-.06.68-.18a.6.6 0 0 0 .22-.48z"/>
  <path fill="#fff" d="M202.65 115.22a.45.45 0 0 0-.45-.47.45.45 0 0 0-.45.47v1.12c0 .08-.13.16-.26.16-.15 0-.26-.08-.26-.16v-1.83c0-.09.1-.15.26-.15.12 0 .23.06.23.15v.16c.1-.17.32-.34.65-.34.29 0 .52.19.63.45.18-.3.46-.45.74-.45.44 0 .85.32.85.89v1.12c0 .08-.12.16-.26.16-.13 0-.25-.08-.25-.16v-1.12a.45.45 0 0 0-.46-.47.45.45 0 0 0-.46.46v1.14c0 .1-.12.15-.25.15-.12 0-.26-.05-.26-.15v-1.13zM207.08 115.2v1.14c0 .09-.11.16-.25.16-.13 0-.24-.07-.24-.16v-.16a.98.98 0 0 1-.73.36c-.36 0-.65-.2-.65-.6 0-.51.46-.65 1.14-.65h.22v-.08c0-.23-.13-.49-.49-.49-.35 0-.44.14-.54.14-.12 0-.19-.13-.19-.24 0-.16.41-.3.74-.3.72 0 .99.43.99.89zm-.52.36h-.12c-.37 0-.71.03-.71.32 0 .2.13.3.31.3.25 0 .53-.24.53-.46v-.16zM209.75 115.17c0 .37-.23.39-.45.39h-1.03v.1c0 .3.26.5.64.5.34 0 .46-.18.6-.18.11 0 .2.13.2.21 0 .14-.33.35-.82.35-.66 0-1.13-.37-1.13-.9v-.43c0-.48.45-.88 1.02-.88.52 0 .97.34.97.84zm-.67.1c.14 0 .18-.04.18-.14 0-.24-.21-.44-.49-.44-.27 0-.5.18-.5.43v.14h.81zM211.51 115.93c0-.48-1.17-.2-1.17-.95 0-.31.22-.65.83-.65.37 0 .73.12.73.27 0 .06-.07.23-.2.23-.1 0-.25-.13-.52-.13-.29 0-.4.14-.4.26 0 .4 1.2.13 1.2.95 0 .38-.32.63-.87.63-.48 0-.84-.2-.84-.37 0-.08.08-.2.18-.2.13 0 .23.2.65.2.32 0 .41-.12.41-.24zM213.14 115.8c0 .21.08.3.34.3h.17c.14 0 .22.1.22.2s-.08.2-.22.2h-.17c-.56 0-.86-.21-.86-.7v-2.27c0-.1.14-.16.26-.16s.26.07.26.16v.83h.6c.08 0 .13.08.13.17 0 .1-.05.18-.14.18h-.6v1.08zM215.59 114.75c-.3 0-.6.25-.6.67v.92c0 .08-.11.16-.26.16-.14 0-.25-.08-.25-.16v-1.83c0-.09.1-.15.25-.15.13 0 .24.06.24.15v.2c.1-.2.33-.38.62-.38h.15c.1 0 .2.1.2.2 0 .13-.1.22-.2.22h-.15zM218.36 115.22v.42c0 .47-.48.9-1.01.9-.54 0-1.01-.43-1.01-.9v-.42c0-.47.45-.9 1-.9.54 0 1.02.41 1.02.9zm-.52 0c0-.23-.22-.47-.5-.47-.27 0-.5.23-.5.47v.42c0 .24.23.48.5.48a.5.5 0 0 0 .5-.48v-.42z"/>
  <path fill="#FFB600" d="M187.84 115.5c0 3.58-3.11 6.5-7 6.5-3.84 0-6.99-2.92-6.99-6.5s3.11-6.5 6.96-6.5c3.92 0 7.03 2.92 7.03 6.5z"/>
  <path fill="#F7981D" d="M180.85 109c3.84 0 6.99 2.92 6.99 6.5s-3.11 6.5-7 6.5c-3.84 0-6.99-2.92-6.99-6.5"/>
  <path fill="#FF8500" d="M180.85 109c3.84 0 6.99 2.92 6.99 6.5s-3.1 6.5-7 6.5"/>
  <path fill="#FF5050" d="M171.45 109c-3.8.03-6.91 2.92-6.91 6.5s3.1 6.5 6.99 6.5a7.38 7.38 0 0 0 5.4-2.37h-1.45a8 8 0 0 1-.51-.66h2.47c.15-.2.3-.44.41-.69h-3.3c-.1-.2-.21-.44-.29-.68h3.85a6.39 6.39 0 0 0 .22-3.44h-4.29c.04-.24.11-.45.19-.69h3.84a3.92 3.92 0 0 0-.3-.69h-3.25c.11-.24.26-.44.4-.69h2.49a3.34 3.34 0 0 0-.56-.68h-1.37c.23-.24.45-.45.7-.66a7.12 7.12 0 0 0-4.7-1.68c0-.07 0-.07-.03-.07z"/>
  <path fill="#E52836" d="M164.53 115.5c0 3.58 3.11 6.5 7 6.5a7.38 7.38 0 0 0 5.4-2.37h-1.45a8 8 0 0 1-.51-.66h2.47c.15-.2.3-.44.41-.68h-3.3c-.1-.21-.21-.45-.29-.7h3.85a6.39 6.39 0 0 0 .22-3.43h-4.29c.04-.24.11-.45.19-.69h3.84a3.92 3.92 0 0 0-.3-.69h-3.25c.11-.24.26-.44.4-.68h2.49a3.3 3.3 0 0 0-.56-.7h-1.37c.23-.23.45-.44.7-.65a7.12 7.12 0 0 0-4.7-1.68h-.03"/>
  <path fill="#CB2026" d="M171.53 122a7.38 7.38 0 0 0 5.4-2.37h-1.45a8 8 0 0 1-.51-.66h2.47c.15-.2.3-.44.41-.68h-3.3c-.1-.21-.21-.45-.29-.7h3.85a6.39 6.39 0 0 0 .22-3.43h-4.29c.04-.24.11-.45.19-.69h3.84a3.92 3.92 0 0 0-.3-.69h-3.25c.11-.24.26-.44.4-.68h2.49a3.3 3.3 0 0 0-.56-.7h-1.37c.23-.23.45-.44.7-.65a7.12 7.12 0 0 0-4.7-1.68h-.03"/>
  <path fill="#fff" d="M174 117.15l.11-.58c-.03 0-.1.03-.18.03-.26 0-.3-.14-.26-.2l.22-1.21h.4l.12-.65h-.37l.07-.42h-.74s-.44 2.27-.44 2.55c0 .41.26.58.6.58.21 0 .4-.06.47-.1zM174.26 116.05c0 .96.7 1.2 1.3 1.2.55 0 .77-.1.77-.1l.15-.65s-.4.17-.78.17c-.81 0-.66-.55-.66-.55h1.51s.11-.45.11-.62c0-.45-.25-1-1.07-1-.77-.07-1.33.69-1.33 1.55zm1.3-1c.4 0 .33.45.33.48h-.81c0-.03.07-.48.47-.48zM180.25 117.15l.15-.76s-.37.18-.63.18c-.52 0-.74-.38-.74-.8 0-.82.45-1.27.96-1.27.37 0 .67.2.67.2l.11-.71s-.44-.18-.85-.18c-.85 0-1.7.7-1.7 2 0 .86.44 1.44 1.33 1.44.3 0 .7-.1.7-.1zM169.93 114.43c-.51 0-.88.14-.88.14l-.12.59s.34-.14.82-.14c.26 0 .48.03.48.24 0 .14-.04.17-.04.17h-.33c-.63 0-1.33.24-1.33 1.03 0 .62.44.76.7.76.52 0 .74-.31.78-.31l-.04.27h.67l.3-1.89c0-.82-.75-.86-1-.86zm.15 1.55c0 .1-.07.65-.52.65a.28.28 0 0 1-.3-.27c0-.17.12-.41.67-.41l.15.03zM171.64 117.22c.18 0 1.1.03 1.1-.9 0-.85-.88-.68-.88-1.03 0-.17.15-.24.4-.24l.52.04.11-.62s-.25-.07-.7-.07c-.55 0-1.1.2-1.1.9 0 .78.92.72.92 1.03 0 .2-.26.23-.45.23-.33 0-.66-.1-.66-.1l-.12.62c.04.07.23.14.86.14zM186.4 113.88l-.15.93s-.3-.34-.7-.34c-.67 0-1.26.75-1.26 1.65 0 .55.3 1.13.92 1.13.44 0 .7-.27.7-.27l-.03.24h.74l.55-3.3-.77-.04zm-.34 1.83c0 .37-.18.86-.59.86-.26 0-.4-.21-.4-.55 0-.55.25-.9.59-.9.25 0 .4.17.4.59zM165.9 117.19l.45-2.48.07 2.48h.52l.96-2.48-.4 2.48h.77l.6-3.3h-1.23l-.74 2.02-.04-2.03h-1.07l-.6 3.3h.71zM177.37 117.19c.22-1.14.26-2.07.78-1.9.07-.44.18-.62.25-.79h-.14c-.34 0-.6.42-.6.42l.08-.38h-.7l-.48 2.68h.8v-.03zM181.96 114.43c-.52 0-.9.14-.9.14l-.1.59s.33-.14.81-.14c.26 0 .48.03.48.24 0 .14-.03.17-.03.17h-.34c-.63 0-1.33.24-1.33 1.03 0 .62.44.76.7.76.52 0 .74-.31.78-.31l-.04.27h.67l.3-1.89c.03-.82-.75-.86-1-.86zm.18 1.55c0 .1-.07.65-.52.65a.28.28 0 0 1-.3-.27c0-.17.12-.41.67-.41l.15.03zM183.58 117.19c.22-1.14.26-2.07.78-1.9.07-.44.18-.62.26-.79h-.15c-.33 0-.6.42-.6.42l.08-.38h-.7l-.48 2.68h.81v-.03z"/>
  <path fill="#DCE5E5" d="M172.85 116.67c0 .41.26.58.6.58.26 0 .48-.06.55-.1l.11-.58c-.03 0-.1.03-.18.03-.26 0-.3-.14-.26-.2l.22-1.21h.4l.12-.65h-.37l.07-.42M174.63 116.05c0 .96.33 1.2.93 1.2.55 0 .77-.1.77-.1l.15-.65s-.4.17-.78.17c-.81 0-.66-.55-.66-.55h1.51s.11-.45.11-.62c0-.45-.25-1-1.07-1-.77-.07-.96.69-.96 1.55zm.93-1c.4 0 .48.45.48.48h-.97c0-.03.08-.48.49-.48zM180.25 117.15l.15-.76s-.37.18-.63.18c-.52 0-.74-.38-.74-.8 0-.82.45-1.27.96-1.27.37 0 .67.2.67.2l.11-.71s-.44-.18-.85-.18c-.85 0-1.33.7-1.33 2 0 .86.07 1.44.96 1.44.3 0 .7-.1.7-.1zM168.94 115.19s.33-.14.8-.14c.27 0 .49.04.49.24 0 .14-.04.17-.04.17h-.33c-.63 0-1.33.25-1.33 1.04 0 .62.44.75.7.75.52 0 .74-.3.78-.3l-.04.27h.67l.3-1.9c0-.78-.75-.82-1.04-.82l-.97.69zm1.51.8c0 .1-.44.64-.89.64a.28.28 0 0 1-.3-.27c0-.17.12-.41.67-.41.11.03.52.03.52.03zM170.82 117.15s.22.07.85.07c.19 0 1.11.03 1.11-.9 0-.85-.89-.68-.89-1.03 0-.17.15-.24.41-.24l.52.04.11-.62s-.26-.07-.7-.07c-.56 0-.74.2-.74.9 0 .78.55.72.55 1.03 0 .2-.26.23-.44.23M186.25 114.81s-.3-.34-.7-.34c-.67 0-.9.75-.9 1.65 0 .55-.07 1.13.56 1.13.44 0 .7-.27.7-.27l-.03.24h.74l.55-3.3-.92.9zm-.04.9c0 .37-.33.86-.74.86-.26 0-.4-.21-.4-.55 0-.55.25-.9.59-.9.25 0 .55.17.55.59zM165.9 117.19l.45-2.48.07 2.48h.52l.96-2.48-.4 2.48h.77l.6-3.3h-.93l-1.04 2.02-.04-2.03h-.4l-1.26 3.3h.7zM176.6 117.19h.77c.22-1.14.26-2.07.78-1.9.07-.44.18-.62.25-.79h-.14c-.34 0-.6.42-.6.42l.08-.38M180.96 115.19s.33-.14.81-.14c.26 0 .48.04.48.24 0 .14-.03.17-.03.17h-.34c-.63 0-1.33.25-1.33 1.04 0 .62.44.75.7.75.52 0 .74-.3.78-.3l-.04.27h.67l.3-1.9c0-.78-.75-.82-1.04-.82l-.96.69zm1.51.8c0 .1-.44.64-.88.64a.28.28 0 0 1-.3-.27c0-.17.11-.41.67-.41.14.03.51.03.51.03zM182.8 117.19h.78c.22-1.14.26-2.07.78-1.9.07-.44.18-.62.26-.79h-.15c-.33 0-.6.42-.6.42l.08-.38"/>
  <path fill="#00B187" fill-rule="evenodd" d="M106.28 111.56s-.91 0-1.15.78l-.87 2.73h-.17l-.86-2.73c-.25-.78-1.16-.78-1.16-.78H100v5.91h2.07v-3.5h.18l1.2 3.5h1.45l1.2-3.5h.18v3.5h2.07v-5.9h-2.07zM113.86 111.56s-.61.05-.9.62l-1.47 2.9h-.17v-3.52h-2.07v5.91h1.95s.64-.05.93-.62l1.44-2.89h.17v3.51h2.07v-5.9h-1.95zM116.74 114.25v3.22h2.07v-1.88h2.25c.98 0 1.8-.56 2.11-1.34h-6.43z" clip-rule="evenodd"/>
  <path fill="url(#paint0_linear)" fill-rule="evenodd" d="M121.06 111.56h-4.62a3.12 3.12 0 0 0 2.4 2.33c.27.06.56.1.86.1h3.56c.03-.14.04-.27.04-.41 0-1.12-1-2.02-2.24-2.02z" clip-rule="evenodd"/>
  <path fill="#3C58BF" d="M139.68 117.9l1.16-6.13h1.8l-1.12 6.12h-1.84z"/>
  <path fill="#293688" d="M139.68 117.9l1.48-6.13h1.47l-1.11 6.12h-1.84z"/>
  <path fill="#3C58BF" d="M148.03 111.83a4.8 4.8 0 0 0-1.65-.27c-1.8 0-3.1.85-3.1 2.08 0 .92.9 1.4 1.62 1.7.72.3.94.51.94.78 0 .41-.58.61-1.08.61a4.1 4.1 0 0 1-1.73-.34l-.25-.1-.25 1.4c.43.17 1.22.34 2.05.34 1.9 0 3.17-.85 3.17-2.15 0-.71-.47-1.25-1.55-1.7-.65-.3-1.04-.47-1.04-.78 0-.27.32-.54 1.04-.54.61 0 1.04.1 1.37.23l.18.07.28-1.33z"/>
  <path fill="#293688" d="M148.03 111.83a4.8 4.8 0 0 0-1.65-.27c-1.8 0-2.77.85-2.77 2.08 0 .92.57 1.4 1.3 1.7.71.3.93.51.93.78 0 .41-.58.61-1.08.61a4.1 4.1 0 0 1-1.73-.34l-.25-.1-.25 1.4c.43.17 1.22.34 2.05.34 1.9 0 3.17-.85 3.17-2.15 0-.71-.47-1.25-1.55-1.7-.65-.3-1.04-.47-1.04-.78 0-.27.32-.54 1.04-.54.61 0 1.04.1 1.37.23l.18.07.28-1.33z"/>
  <path fill="#3C58BF" d="M151.13 111.77c-.44 0-.76.03-.94.44l-2.7 5.68h1.95l.36-1.02h2.3l.22 1.02h1.72l-1.5-6.12h-1.41zm-.83 4.08c.1-.3.72-1.8.72-1.8s.14-.38.25-.62l.1.58.44 1.87h-1.51v-.03z"/>
  <path fill="#293688" d="M151.56 111.77c-.43 0-.76.03-.94.44l-3.13 5.68h1.95l.36-1.02h2.3l.22 1.02h1.72l-1.5-6.12h-.98zm-1.26 4.08l.72-1.8s.14-.38.25-.62l.1.58.44 1.87h-1.51v-.03z"/>
  <path fill="#3C58BF" d="M136.37 116.06l-.18-.89a5.04 5.04 0 0 0-2.52-2.69l1.62 5.45h1.95l2.91-6.13h-1.94l-1.84 4.26z"/>
  <path fill="#293688" d="M136.37 116.06l-.18-.89a5.04 5.04 0 0 0-2.52-2.69l1.62 5.45h1.95l2.91-6.13h-1.58l-2.2 4.26z"/>
  <path fill="#FFBC00" d="M131.37 111.77l.32.06c2.3.52 3.9 1.8 4.5 3.34l-.65-2.9c-.1-.4-.43-.5-.82-.5h-3.35z"/>
  <path fill="#F7981D" d="M131.37 111.77c2.3.5 4.21 1.83 4.82 3.37l-.6-2.42a.87.87 0 0 0-.87-.65l-3.35-.3z"/>
  <path fill="#ED7C00" d="M131.37 111.77c2.3.5 4.21 1.83 4.82 3.37l-.43-1.33c-.1-.41-.25-.82-.75-.99l-3.64-1.05z"/>
  <path fill="#051244" d="M138.17 115.85l-1.22-1.16-.58 1.3-.14-.85a5.03 5.03 0 0 0-2.52-2.7l1.62 5.45h1.94l.9-2.04zM141.52 117.9l-1.55-1.5-.28 1.5h1.83zM145.66 115.78c.14.14.21.24.18.38 0 .4-.58.6-1.08.6a4.1 4.1 0 0 1-1.73-.33l-.25-.1-.25 1.4c.43.16 1.22.33 2.05.33 1.15 0 2.08-.3 2.63-.85l-1.55-1.43zM147.75 117.9h1.69l.36-1.03h2.3l.22 1.02h1.72l-.6-2.48-2.17-1.98.11.55.43 1.87h-1.5l.71-1.8s.14-.38.25-.62"/>
  <path fill="#00B187" d="M22.05 13.35v-.93A2.49 2.49 0 0 0 19.5 10a2.49 2.49 0 0 0-2.55 2.42v.93c-.54.1-.95.6-.95 1.19v3.26c0 .66.52 1.2 1.15 1.2h4.7c.63 0 1.15-.54 1.15-1.2v-3.26c0-.6-.41-1.09-.95-1.19zm-4.78-.93c0-1.15 1-2.09 2.23-2.09s2.23.94 2.23 2.09v.91h-4.46v-.91zm5.41 5.38c0 .48-.37.87-.83.87h-4.7a.85.85 0 0 1-.83-.87v-3.26c0-.48.37-.87.83-.87h4.7c.46 0 .83.39.83.87v3.26z"/>
  <path fill="#00B187" d="M19.5 14.67c-.35 0-.64.3-.64.66v1c0 .37.29.67.64.67.35 0 .64-.3.64-.67v-1a.65.65 0 0 0-.64-.66zm.32 1.66c0 .19-.14.34-.32.34a.33.33 0 0 1-.32-.34v-1c0-.18.14-.33.32-.33s.32.15.32.33v1z"/>
  <path fill="#908F8F" d="M247 40h83v28h-83z"/>
  <path fill="#939393" d="M18.92 51h-1.04v-3.61h-3.94V51H12.9v-7.82h1.03v3.36h3.94v-3.36h1.04V51zm1.41-2.96c0-.57.11-1.08.33-1.54.23-.45.54-.8.94-1.05.4-.25.86-.37 1.37-.37.79 0 1.43.27 1.92.82.49.55.73 1.28.73 2.19v.07c0 .56-.1 1.07-.33 1.52a2.45 2.45 0 0 1-2.31 1.43c-.79 0-1.43-.28-1.92-.82a3.15 3.15 0 0 1-.73-2.18v-.07zm1 .12c0 .64.15 1.16.45 1.55.3.4.7.59 1.2.59s.9-.2 1.2-.6c.3-.4.45-.95.45-1.66 0-.64-.15-1.15-.46-1.55-.3-.4-.7-.6-1.2-.6s-.89.2-1.19.6c-.3.38-.45.94-.45 1.67zm8.88 1.52l1.98-4.5h1.24V51h-1v-4.23L30.57 51h-.69l-1.92-4.32V51h-1v-5.81h1.3l1.96 4.5zm7.23 1.43c-.78 0-1.43-.26-1.92-.78a2.89 2.89 0 0 1-.74-2.07v-.19c0-.57.1-1.09.33-1.54.22-.45.53-.8.92-1.06.4-.26.83-.39 1.29-.39.75 0 1.34.25 1.76.75.42.5.63 1.2.63 2.14v.4h-3.94c.02.58.18 1.05.5 1.4.32.35.73.53 1.23.53.35 0 .64-.08.89-.22.24-.14.45-.33.64-.57l.6.47a2.44 2.44 0 0 1-2.19 1.13zm-.12-5.21c-.4 0-.74.14-1.01.44-.27.29-.44.7-.5 1.22h2.9v-.07c-.02-.5-.16-.9-.4-1.17a1.24 1.24 0 0 0-1-.42zm8.45 2.26c0 .88-.2 1.6-.6 2.14-.4.54-.96.8-1.65.8-.7 0-1.26-.22-1.66-.66v2.8h-1v-8.05h.91l.05.64c.4-.5.97-.75 1.69-.75.7 0 1.25.26 1.65.8.4.52.61 1.25.61 2.19v.09zm-.99-.11c0-.66-.14-1.18-.42-1.56a1.35 1.35 0 0 0-1.15-.57c-.6 0-1.05.27-1.35.8v2.78c.3.53.75.8 1.36.8.48 0 .86-.2 1.14-.57.28-.38.42-.94.42-1.68zm6.8.47h-.73V51h-1v-5.81h1v2.46h.65l1.96-2.46h1.2l-2.3 2.8 2.5 3.01h-1.27l-2.01-2.48zM59.3 51c-.06-.11-.1-.32-.14-.61-.46.48-1.02.72-1.66.72-.57 0-1.04-.16-1.4-.49a1.58 1.58 0 0 1-.56-1.23c0-.6.23-1.08.7-1.4.45-.35 1.1-.51 1.94-.51h.96v-.46c0-.35-.1-.62-.3-.83-.22-.2-.52-.3-.93-.3-.35 0-.65.08-.89.26s-.36.4-.36.65h-1c0-.29.1-.57.3-.84.22-.27.5-.49.85-.64.35-.16.74-.24 1.16-.24.67 0 1.2.17 1.57.5.38.34.58.8.6 1.39v2.67c0 .53.06.96.2 1.27V51H59.3zm-1.65-.76c.31 0 .6-.08.89-.24.27-.16.48-.37.6-.63v-1.19h-.78c-1.21 0-1.82.36-1.82 1.07 0 .31.1.55.3.73.22.17.48.26.8.26zm8.95-2.08c0 .88-.2 1.6-.6 2.14-.4.54-.96.8-1.65.8-.7 0-1.26-.22-1.66-.66v2.8h-1v-8.05h.91l.05.64c.4-.5.97-.75 1.69-.75.7 0 1.25.26 1.65.8.4.52.61 1.25.61 2.19v.09zm-1-.11c0-.66-.13-1.18-.41-1.56a1.35 1.35 0 0 0-1.15-.57c-.6 0-1.05.27-1.35.8v2.78c.3.53.75.8 1.36.8.48 0 .86-.2 1.13-.57.29-.38.43-.94.43-1.68zm6.16-2.06H69.8V51h-1v-5h-1.9v-.81h4.85v.8zm2.05 1.2h1.51c.66 0 1.18.18 1.56.52.39.33.58.8.58 1.37 0 .58-.2 1.04-.6 1.4-.39.34-.92.52-1.58.52h-2.46v-5.81h1v2zM79.53 51h-1v-5.81h1V51zm-5.72-3v2.19h1.48c.37 0 .66-.1.86-.29.2-.19.3-.45.3-.79 0-.32-.1-.58-.3-.78-.19-.21-.47-.32-.82-.33H73.8zM15.5 110.63l2.23-6.45h1.13l-2.9 7.82h-.91l-2.9-7.82h1.12l2.23 6.45zm8.32-.67h-3.27L19.8 112h-1.06l2.98-7.82h.9l3 7.82h-1.06l-.75-2.04zm-2.96-.85h2.66l-1.34-3.66-1.32 3.66zm6.86 2.05h3.7v.84h-4.74v-7.82h1.04v6.98zm5.98.84h-1.03v-7.82h1.03V112zm1.9 0v-7.82h2.2c.68 0 1.28.15 1.8.45.53.3.93.73 1.22 1.29.28.55.43 1.19.43 1.9v.5c0 .74-.14 1.39-.43 1.95-.28.55-.69.98-1.22 1.27-.52.3-1.14.45-1.84.46H35.6zm1.03-6.97v6.13h1.08c.8 0 1.41-.25 1.85-.74.45-.5.67-1.2.67-2.11v-.46c0-.89-.2-1.58-.63-2.07-.41-.5-1-.75-1.77-.75h-1.2zm14.1 0h-2.51V112h-1.03v-6.97h-2.5v-.85h6.04v.85zM57.9 112h-1.04v-3.61h-3.94V112H51.9v-7.82h1.03v3.36h3.94v-3.36h1.04V112zm4.7-3.16h-1.84V112h-1.03v-7.82h2.59c.88 0 1.55.2 2.03.6.47.4.71.99.71 1.75 0 .49-.13.91-.4 1.28-.26.36-.62.63-1.1.8l1.84 3.33v.06h-1.1l-1.7-3.16zm-1.84-.85h1.59c.51 0 .92-.13 1.22-.4.3-.26.45-.61.45-1.06 0-.48-.14-.85-.43-1.11-.29-.26-.7-.39-1.25-.4h-1.58V108zm11.26-3.81v5.32c0 .73-.24 1.34-.7 1.8a2.8 2.8 0 0 1-1.87.8h-.27c-.86 0-1.54-.22-2.05-.68-.51-.47-.77-1.1-.77-1.91v-5.33h1.02v5.3c0 .56.15 1 .46 1.32.31.3.76.46 1.34.46.58 0 1.02-.15 1.33-.46.31-.31.47-.75.47-1.32v-5.3h1.04z"/>
  <path stroke="#828282" stroke-width=".25" d="M12 78.88h47"/>
  <path fill="#939393" d="M23.94 70.85c0 1.4-.26 2.47-.77 3.2a2.61 2.61 0 0 1-2.28 1.09c-.98 0-1.74-.36-2.26-1.07a5.32 5.32 0 0 1-.81-3.12v-1.78c0-1.4.26-2.46.78-3.18a2.63 2.63 0 0 1 2.28-1.08c.98 0 1.73.35 2.25 1.05.52.69.79 1.71.8 3.07v1.82zm-.82-1.78c0-1.14-.19-2-.56-2.59a1.85 1.85 0 0 0-1.68-.87c-.74 0-1.3.28-1.67.85a4.7 4.7 0 0 0-.58 2.52v1.96c0 1.13.2 2 .58 2.6.39.6.95.9 1.68.9s1.28-.29 1.65-.88c.38-.58.57-1.44.58-2.58v-1.91zm11.38 1.78c0 1.4-.25 2.47-.77 3.2a2.61 2.61 0 0 1-2.27 1.09c-.99 0-1.74-.36-2.27-1.07a5.32 5.32 0 0 1-.8-3.12v-1.78c0-1.4.26-2.46.78-3.18a2.63 2.63 0 0 1 2.27-1.08c.99 0 1.74.35 2.26 1.05.52.69.79 1.71.8 3.07v1.82zm-.82-1.78c0-1.14-.18-2-.56-2.59a1.85 1.85 0 0 0-1.68-.87c-.74 0-1.3.28-1.67.85a4.7 4.7 0 0 0-.57 2.52v1.96c0 1.13.2 2 .57 2.6.4.6.95.9 1.69.9.72 0 1.28-.29 1.65-.88.38-.58.57-1.44.57-2.58v-1.91zm11.39 1.78c0 1.4-.26 2.47-.77 3.2a2.61 2.61 0 0 1-2.28 1.09c-.98 0-1.74-.36-2.26-1.07a5.32 5.32 0 0 1-.8-3.12v-1.78c0-1.4.25-2.46.77-3.18a2.63 2.63 0 0 1 2.28-1.08c.98 0 1.73.35 2.25 1.05.52.69.8 1.71.81 3.07v1.82zm-.82-1.78c0-1.14-.19-2-.56-2.59a1.85 1.85 0 0 0-1.68-.87c-.74 0-1.3.28-1.67.85a4.7 4.7 0 0 0-.58 2.52v1.96c0 1.13.2 2 .58 2.6.39.6.95.9 1.68.9s1.28-.29 1.66-.88c.37-.58.56-1.44.57-2.58v-1.91zm11.39 1.78c0 1.4-.26 2.47-.78 3.2a2.61 2.61 0 0 1-2.27 1.09c-.99 0-1.74-.36-2.27-1.07a5.32 5.32 0 0 1-.8-3.12v-1.78c0-1.4.26-2.46.78-3.18a2.63 2.63 0 0 1 2.27-1.08c.99 0 1.74.35 2.26 1.05.52.69.79 1.71.8 3.07v1.82zm-.83-1.78c0-1.14-.18-2-.56-2.59a1.85 1.85 0 0 0-1.68-.87c-.74 0-1.3.28-1.67.85a4.7 4.7 0 0 0-.57 2.52v1.96c0 1.13.2 2 .57 2.6.4.6.95.9 1.69.9.73 0 1.28-.29 1.65-.88.38-.58.57-1.44.57-2.58v-1.91z"/>
  <path stroke="#828282" stroke-width=".25" d="M12 136.88h60"/>
  <path fill="#939393" d="M23.94 128.85c0 1.4-.26 2.47-.77 3.2a2.62 2.62 0 0 1-2.28 1.09c-.98 0-1.74-.36-2.26-1.07a5.32 5.32 0 0 1-.81-3.12v-1.78c0-1.4.26-2.46.78-3.18a2.63 2.63 0 0 1 2.28-1.08c.98 0 1.73.35 2.25 1.05.52.69.79 1.71.8 3.07v1.82zm-.82-1.78c0-1.14-.19-2-.56-2.59a1.86 1.86 0 0 0-1.68-.87c-.74 0-1.3.28-1.67.85a4.7 4.7 0 0 0-.58 2.52v1.96c0 1.13.2 2 .58 2.6.39.6.95.9 1.68.9s1.28-.29 1.65-.88c.38-.58.57-1.44.58-2.58v-1.91zm11.38 1.78c0 1.4-.25 2.47-.77 3.2a2.62 2.62 0 0 1-2.27 1.09c-.99 0-1.74-.36-2.27-1.07a5.32 5.32 0 0 1-.8-3.12v-1.78c0-1.4.26-2.46.78-3.18a2.63 2.63 0 0 1 2.27-1.08c.99 0 1.74.35 2.26 1.05.52.69.79 1.71.8 3.07v1.82zm-.82-1.78c0-1.14-.18-2-.56-2.59a1.86 1.86 0 0 0-1.68-.87c-.74 0-1.3.28-1.67.85a4.7 4.7 0 0 0-.57 2.52v1.96c0 1.13.2 2 .57 2.6.4.6.95.9 1.69.9.72 0 1.28-.29 1.65-.88.38-.58.57-1.44.57-2.58v-1.91zm4.78-4.02h.8l4.16 10.8h-.8l-4.16-10.8zm14.93 5.8c0 1.4-.25 2.47-.77 3.2a2.62 2.62 0 0 1-2.28 1.09c-.98 0-1.73-.36-2.26-1.07a5.32 5.32 0 0 1-.8-3.12v-1.78c0-1.4.25-2.46.77-3.18a2.63 2.63 0 0 1 2.28-1.08c.98 0 1.74.35 2.26 1.05.52.69.78 1.71.8 3.07v1.82zm-.82-1.78c0-1.14-.18-2-.56-2.59a1.86 1.86 0 0 0-1.68-.87c-.74 0-1.3.28-1.67.85a4.7 4.7 0 0 0-.57 2.52v1.96c0 1.13.19 2 .57 2.6.39.6.95.9 1.68.9s1.28-.29 1.66-.88c.38-.58.57-1.44.57-2.58v-1.91zm11.39 1.78c0 1.4-.26 2.47-.77 3.2a2.62 2.62 0 0 1-2.28 1.09c-.98 0-1.74-.36-2.26-1.07a5.32 5.32 0 0 1-.8-3.12v-1.78c0-1.4.25-2.46.77-3.18a2.63 2.63 0 0 1 2.28-1.08c.98 0 1.73.35 2.25 1.05.52.69.8 1.71.8 3.07v1.82zm-.82-1.78c0-1.14-.19-2-.56-2.59a1.86 1.86 0 0 0-1.68-.87c-.74 0-1.3.28-1.67.85a4.7 4.7 0 0 0-.58 2.52v1.96c0 1.13.2 2 .58 2.6.39.6.95.9 1.68.9s1.28-.29 1.65-.88c.38-.58.57-1.44.58-2.58v-1.91zM260.15 135.06h-2.2V141h-.53v-5.94h-2.2v-.46h4.93v.46zm4.25 3.61c0 .74-.16 1.33-.49 1.77-.33.43-.77.65-1.32.65-.65 0-1.14-.23-1.49-.69v2.43h-.52v-6.59h.48l.03.68c.34-.5.84-.76 1.5-.76.56 0 1 .21 1.33.64.32.43.48 1.03.48 1.8v.07zm-.52-.1c0-.6-.13-1.08-.38-1.43a1.2 1.2 0 0 0-1.04-.53c-.32 0-.6.08-.83.24-.23.15-.4.38-.53.67v2.28a1.4 1.4 0 0 0 1.37.84c.44 0 .79-.17 1.03-.52.25-.36.38-.87.38-1.54zm4.82-2.32h.53V141h-.53v-3.9l-2.57 3.9h-.52v-4.75h.52v3.9l2.57-3.9zm4.16 0h.53v4.3h2.56v-4.3h.53v4.3h.48l-.04 1.86h-.48V141h-3.58v-4.75zm8.21 0h.53V141h-.53v-3.9l-2.56 3.9h-.53v-4.75h.53v3.9l2.56-3.9zm1.74 2.41c0-.77.15-1.38.46-1.83.3-.45.72-.67 1.26-.67.3 0 .57.07.78.2v-2.11h.52v2.13c.22-.15.49-.22.81-.22.5 0 .91.2 1.22.6.3.42.47.98.5 1.7v.3c0 .72-.15 1.29-.46 1.7-.3.42-.72.63-1.25.63-.32 0-.59-.07-.82-.2v1.94h-.52v-1.94c-.23.14-.49.2-.8.2-.5 0-.9-.19-1.2-.56-.3-.38-.46-.91-.5-1.58v-.29zm5.03 0a2.8 2.8 0 0 0-.35-1.5 1.08 1.08 0 0 0-.96-.56c-.3 0-.53.07-.7.2v3.68c.19.11.42.17.7.17.42 0 .74-.17.96-.5.23-.33.35-.82.35-1.49zm-4.5.1c0 .6.11 1.06.33 1.4.22.32.54.49.95.49.27 0 .5-.06.69-.18v-3.68c-.17-.12-.4-.19-.68-.19-.41 0-.73.19-.96.56-.22.36-.33.9-.33 1.6zm10.02-.09c0 .74-.17 1.33-.5 1.77-.32.43-.76.65-1.31.65-.66 0-1.15-.23-1.5-.69v2.43h-.52v-6.59h.49l.02.68c.34-.5.84-.76 1.5-.76.56 0 1 .21 1.33.64.32.43.49 1.03.49 1.8v.07zm-.53-.1c0-.6-.13-1.08-.38-1.43a1.2 1.2 0 0 0-1.04-.53c-.32 0-.6.08-.83.24-.23.15-.4.38-.53.67v2.28a1.4 1.4 0 0 0 1.37.84c.44 0 .79-.17 1.03-.52.25-.36.38-.87.38-1.54zm2.27-.6h1.38c.35 0 .65.07.92.2.27.12.47.3.6.52.14.23.2.5.2.79 0 .46-.15.83-.47 1.1-.31.28-.74.42-1.27.42h-1.88v-4.75h.52v1.72zm0 .45v2.14h1.37c.38 0 .67-.1.88-.29.22-.19.33-.45.33-.78 0-.32-.1-.57-.32-.77-.2-.2-.49-.3-.85-.3h-1.4zm4.72 2.58h-.53v-4.75h.53V141zm7.3 0h-.52v-2.18h-2.57V141h-.52v-4.75h.52v2.13h2.57v-2.13h.52V141zm4.42 0a2.45 2.45 0 0 1-.1-.66c-.19.24-.43.42-.71.56-.29.12-.59.19-.9.19a1.6 1.6 0 0 1-1.12-.38 1.25 1.25 0 0 1-.42-.97c0-.46.19-.83.57-1.1.39-.27.93-.4 1.62-.4h.95v-.55c0-.34-.1-.6-.32-.8-.2-.2-.5-.29-.91-.29-.37 0-.67.1-.91.28a.84.84 0 0 0-.36.68h-.53c0-.38.18-.71.53-.99.35-.27.78-.41 1.3-.41.53 0 .94.13 1.25.4.3.26.46.63.47 1.1v2.25c0 .47.05.8.15 1.04v.05h-.56zm-1.66-.38c.36 0 .67-.08.94-.25.28-.17.48-.4.61-.68v-1.05h-.94c-.53 0-.94.1-1.23.29a.86.86 0 0 0-.44.76c0 .27.1.5.29.67.2.17.46.26.77.26zm-54.48 8.93c0-.46.08-.87.26-1.23a2.03 2.03 0 0 1 1.85-1.16c.64 0 1.15.22 1.54.66.4.45.6 1.03.6 1.77v.1c0 .47-.1.88-.28 1.25a1.97 1.97 0 0 1-1.85 1.15c-.63 0-1.14-.22-1.54-.67a2.57 2.57 0 0 1-.58-1.76v-.1zm.52.15c0 .57.15 1.03.44 1.4.3.36.69.54 1.16.54.48 0 .86-.18 1.15-.54.3-.37.45-.85.45-1.45v-.1c0-.36-.07-.7-.2-1-.14-.3-.33-.53-.57-.7a1.44 1.44 0 0 0-.84-.25c-.46 0-.85.19-1.14.56-.3.37-.45.85-.45 1.44v.1zm6.73-2.14c.6 0 1.09.2 1.46.6.38.39.57.9.57 1.56v.11c0 .43-.09.82-.26 1.17a1.9 1.9 0 0 1-.74.8c-.32.2-.69.29-1.1.29a2 2 0 0 1-1.53-.63 2.37 2.37 0 0 1-.58-1.67v-.42c0-.99.19-1.77.56-2.36.38-.6.91-.94 1.6-1.06.44-.07.75-.16.92-.28a.56.56 0 0 0 .27-.5h.45c0 .25-.05.46-.15.62-.1.16-.26.29-.46.39-.2.1-.52.18-.94.24a1.9 1.9 0 0 0-1.17.62c-.3.34-.49.78-.57 1.35a2.01 2.01 0 0 1 1.67-.83zm-1.65 2.16v.11c0 .54.14.98.43 1.31.3.34.67.5 1.15.5.47 0 .85-.16 1.14-.5a2 2 0 0 0 .43-1.34v-.11c0-.5-.15-.9-.44-1.21a1.48 1.48 0 0 0-1.14-.47c-.47 0-.85.16-1.14.47-.29.32-.43.73-.43 1.24zm4.4-.17c0-.46.09-.87.26-1.23a2.03 2.03 0 0 1 1.86-1.16c.63 0 1.14.22 1.53.66.4.45.6 1.03.6 1.77v.1c0 .47-.1.88-.27 1.25a1.97 1.97 0 0 1-1.86 1.15c-.63 0-1.14-.22-1.53-.67a2.58 2.58 0 0 1-.6-1.76v-.1zm.53.15c0 .57.14 1.03.43 1.4.3.36.69.54 1.16.54.48 0 .86-.18 1.16-.54.3-.37.44-.85.44-1.45v-.1c0-.36-.07-.7-.2-1a1.6 1.6 0 0 0-.57-.7 1.44 1.44 0 0 0-.83-.25c-.47 0-.85.19-1.15.56-.3.37-.44.85-.44 1.44v.1zm8.63-.03c0 .74-.17 1.33-.5 1.77-.32.43-.76.65-1.31.65-.65 0-1.15-.23-1.5-.69v2.43h-.52v-6.59h.49l.02.68c.34-.5.84-.76 1.5-.76.56 0 1 .21 1.33.64.32.43.49 1.03.49 1.8v.07zm-.53-.1c0-.6-.13-1.08-.38-1.43a1.2 1.2 0 0 0-1.04-.53c-.32 0-.6.08-.83.24-.23.15-.4.38-.53.67v2.28a1.4 1.4 0 0 0 1.37.84c.44 0 .79-.17 1.03-.52.25-.36.38-.87.38-1.54zm1.4-.02c0-.46.1-.87.27-1.23a2.03 2.03 0 0 1 1.85-1.16c.64 0 1.15.22 1.54.66.4.45.59 1.03.59 1.77v.1c0 .47-.09.88-.27 1.25a1.98 1.98 0 0 1-1.85 1.15c-.63 0-1.14-.22-1.54-.67a2.57 2.57 0 0 1-.58-1.76v-.1zm.53.15c0 .57.15 1.03.44 1.4.3.36.68.54 1.16.54.48 0 .86-.18 1.15-.54.3-.37.45-.85.45-1.45v-.1c0-.36-.07-.7-.2-1-.14-.3-.33-.53-.57-.7a1.44 1.44 0 0 0-.84-.25c-.47 0-.85.19-1.14.56-.3.37-.45.85-.45 1.44v.1zm8.13-2h-1.73v4.3h-.53v-4.3h-1.67v-.45h3.93v.44zm2.35 4.39a2.04 2.04 0 0 1-1.86-1.13 2.6 2.6 0 0 1-.27-1.2v-.19c0-.46.09-.87.26-1.23.18-.37.43-.66.75-.87.31-.2.66-.31 1.03-.31.57 0 1.03.2 1.37.59.34.4.5.93.5 1.61v.3h-3.39v.1a2 2 0 0 0 .47 1.35c.3.35.7.53 1.16.53.29 0 .53-.05.75-.15.21-.1.41-.27.59-.5l.33.26c-.4.56-.95.84-1.69.84zm-.1-4.49c-.39 0-.72.15-1 .44-.26.3-.43.68-.49 1.17h2.85v-.06a1.75 1.75 0 0 0-.39-1.11 1.21 1.21 0 0 0-.96-.44zm6.4 2.22H292V152h-.53v-4.75h.53v2.1h.72l1.75-2.1h.66l-1.95 2.3 2.17 2.45h-.7l-1.92-2.18zm6.37 2.18a2.45 2.45 0 0 1-.1-.66c-.19.24-.42.42-.71.56-.29.12-.59.19-.9.19a1.6 1.6 0 0 1-1.12-.38 1.25 1.25 0 0 1-.42-.97c0-.46.2-.83.58-1.1.38-.27.92-.4 1.6-.4h.96v-.55c0-.34-.1-.6-.31-.8-.21-.2-.52-.29-.92-.29-.36 0-.67.1-.9.28a.84.84 0 0 0-.37.68h-.52c0-.38.17-.71.52-.99.35-.27.79-.41 1.3-.41.53 0 .95.13 1.25.4.3.26.47.63.47 1.1v2.25c0 .47.05.8.15 1.04v.05h-.56zm-1.65-.38c.35 0 .66-.08.94-.25.27-.17.48-.4.6-.68v-1.05h-.94c-.52 0-.93.1-1.23.29a.86.86 0 0 0-.44.76c0 .27.1.5.3.67.2.17.45.26.77.26zm7.3-1.95c0 .74-.17 1.33-.5 1.77-.32.43-.76.65-1.32.65-.65 0-1.14-.23-1.49-.69v2.43h-.52v-6.59h.49l.02.68c.34-.5.84-.76 1.5-.76.56 0 1 .21 1.33.64.32.43.49 1.03.49 1.8v.07zm-.53-.1c0-.6-.13-1.08-.38-1.43a1.2 1.2 0 0 0-1.04-.53c-.32 0-.6.08-.83.24-.23.15-.4.38-.53.67v2.28a1.4 1.4 0 0 0 1.37.84c.44 0 .79-.17 1.03-.52.25-.36.38-.87.38-1.54zm4.76-1.88h-1.74V152h-.52v-4.3h-1.67v-.45H309v.44zm1.44 1.28h1.37c.35 0 .66.07.93.2.26.12.46.3.6.52.14.23.2.5.2.79 0 .46-.15.83-.47 1.1-.31.28-.74.42-1.27.42h-1.88v-4.75h.52v1.72zm0 .45v2.14h1.37c.37 0 .67-.1.88-.29a1 1 0 0 0 .33-.78c0-.32-.1-.57-.32-.77-.2-.2-.5-.3-.86-.3h-1.4zm4.72 2.58h-.53v-4.75h.53V152z"/>
  <path stroke="#828282" stroke-width=".25" d="M256 117.88h60"/>
  <path fill="#939393" d="M276.94 109.85c0 1.4-.26 2.47-.77 3.2a2.62 2.62 0 0 1-2.28 1.09c-.99 0-1.74-.36-2.26-1.07a5.32 5.32 0 0 1-.81-3.12v-1.78c0-1.4.26-2.46.78-3.18a2.63 2.63 0 0 1 2.28-1.08c.98 0 1.73.35 2.25 1.05.52.69.79 1.71.8 3.07v1.82zm-.82-1.78c0-1.14-.19-2-.56-2.59a1.86 1.86 0 0 0-1.68-.87c-.74 0-1.3.28-1.67.85a4.7 4.7 0 0 0-.58 2.52v1.96c0 1.13.2 2 .58 2.6.39.6.95.9 1.68.9s1.28-.29 1.65-.88c.38-.58.57-1.45.58-2.58v-1.91zm11.38 1.78c0 1.4-.25 2.47-.77 3.2a2.62 2.62 0 0 1-2.28 1.09c-.98 0-1.73-.36-2.26-1.07a5.31 5.31 0 0 1-.8-3.12v-1.78c0-1.4.26-2.46.78-3.18a2.63 2.63 0 0 1 2.27-1.08c.99 0 1.74.35 2.26 1.05.52.69.79 1.71.8 3.07v1.82zm-.82-1.78c0-1.14-.18-2-.56-2.59a1.85 1.85 0 0 0-1.68-.87c-.74 0-1.3.28-1.67.85a4.7 4.7 0 0 0-.57 2.52v1.96c0 1.13.2 2 .57 2.6.4.6.95.9 1.69.9.72 0 1.28-.29 1.65-.88.38-.58.57-1.45.57-2.58v-1.91zm11.39 1.78c0 1.4-.26 2.47-.77 3.2a2.61 2.61 0 0 1-2.28 1.09c-.98 0-1.74-.36-2.26-1.07a5.31 5.31 0 0 1-.8-3.12v-1.78c0-1.4.25-2.46.77-3.18a2.63 2.63 0 0 1 2.28-1.08c.98 0 1.73.35 2.25 1.05.52.69.8 1.71.81 3.07v1.82zm-.82-1.78c0-1.14-.19-2-.56-2.59a1.86 1.86 0 0 0-1.68-.87c-.74 0-1.3.28-1.67.85a4.7 4.7 0 0 0-.57 2.52v1.96c0 1.13.19 2 .57 2.6.39.6.95.9 1.68.9s1.28-.29 1.66-.88c.37-.58.56-1.45.57-2.58v-1.91z"/>
  <path fill="#444343" d="M269.34 82a2.29 2.29 0 0 1-.73 1.55c-.4.36-.95.54-1.63.54-.47 0-.9-.12-1.26-.36a2.32 2.32 0 0 1-.84-1c-.2-.44-.3-.94-.3-1.5v-.83c0-.57.1-1.07.3-1.51a2.29 2.29 0 0 1 2.14-1.38c.69 0 1.23.19 1.63.56.4.37.63.88.69 1.54h-.55c-.13-1.1-.72-1.63-1.77-1.63-.58 0-1.04.21-1.38.65a2.83 2.83 0 0 0-.52 1.8v.78c0 .73.17 1.32.5 1.76.34.44.8.66 1.36.66.57 0 1-.13 1.28-.4.29-.28.47-.68.53-1.23h.55zm4.14 1.2l.04.15.04-.14 2.01-5.6h.6L273.77 84h-.52l-2.38-6.4h.59l2.01 5.6zm9-1.2a2.29 2.29 0 0 1-.73 1.55c-.4.36-.95.54-1.63.54-.47 0-.9-.12-1.26-.36a2.32 2.32 0 0 1-.84-1c-.2-.44-.3-.94-.3-1.5v-.83c0-.57.1-1.07.3-1.51a2.3 2.3 0 0 1 2.14-1.38c.69 0 1.23.19 1.62.56.4.37.63.88.7 1.54h-.55c-.13-1.1-.72-1.63-1.77-1.63-.58 0-1.04.21-1.39.65a2.83 2.83 0 0 0-.51 1.8v.78c0 .73.17 1.32.5 1.76.34.44.79.66 1.36.66.57 0 1-.13 1.28-.4.29-.28.47-.68.53-1.23h.55zm9.83 0a2.28 2.28 0 0 1-.73 1.55c-.4.36-.94.54-1.63.54-.47 0-.89-.12-1.26-.36a2.32 2.32 0 0 1-.84-1c-.2-.44-.3-.94-.3-1.5v-.83c0-.57.1-1.07.3-1.51a2.28 2.28 0 0 1 2.14-1.38c.69 0 1.23.19 1.63.56.4.37.63.88.69 1.54h-.54c-.14-1.1-.73-1.63-1.77-1.63-.59 0-1.05.21-1.4.65a2.83 2.83 0 0 0-.5 1.8v.78c0 .73.16 1.32.5 1.76.33.44.78.66 1.35.66.57 0 1-.13 1.28-.4.3-.28.47-.68.54-1.23h.54zm6.94-.85c0 .59-.1 1.1-.3 1.55-.2.44-.5.79-.88 1.03-.37.24-.8.36-1.3.36-.75 0-1.35-.27-1.81-.8a3.21 3.21 0 0 1-.7-2.17v-.66c0-.58.1-1.1.31-1.54.21-.46.5-.8.88-1.04s.81-.37 1.3-.37a2.33 2.33 0 0 1 2.18 1.36c.2.44.31.94.32 1.51v.77zm-.54-.7c0-.77-.17-1.37-.52-1.8a1.73 1.73 0 0 0-1.43-.66c-.6 0-1.07.22-1.43.66a2.85 2.85 0 0 0-.52 1.83v.67c0 .76.17 1.36.52 1.8.36.45.83.67 1.44.67.6 0 1.09-.22 1.43-.66.34-.44.51-1.05.51-1.83v-.68zm2.8 3.55v-6.4h1.8c.52 0 .99.12 1.4.36.42.24.74.58.98 1.03.23.44.35.95.35 1.52v.59c0 .57-.12 1.07-.35 1.52-.23.44-.56.78-.98 1.02-.42.24-.9.36-1.45.36h-1.75zm.55-5.94v5.48h1.2a2.1 2.1 0 0 0 1.63-.67c.4-.44.61-1.05.61-1.81v-.56c0-.74-.2-1.33-.6-1.77-.4-.44-.93-.66-1.59-.67h-1.25zm9.79 2.87h-3v2.61h3.44V84h-3.98v-6.4h3.96v.46h-3.42v2.42h3v.45z"/>
  <path stroke="#828282" stroke-width=".25" d="M66 78.88h47"/>
  <path fill="#939393" d="M77.94 70.85c0 1.4-.26 2.47-.77 3.2a2.61 2.61 0 0 1-2.28 1.09c-.98 0-1.74-.36-2.26-1.07a5.32 5.32 0 0 1-.81-3.12v-1.78c0-1.4.26-2.46.78-3.18a2.63 2.63 0 0 1 2.28-1.08c.98 0 1.73.35 2.25 1.05.52.69.79 1.71.8 3.07v1.82zm-.82-1.78c0-1.14-.19-2-.56-2.59a1.85 1.85 0 0 0-1.68-.87c-.74 0-1.3.28-1.67.85a4.7 4.7 0 0 0-.58 2.52v1.96c0 1.13.2 2 .58 2.6.39.6.95.9 1.68.9s1.28-.29 1.65-.88c.38-.58.57-1.44.58-2.58v-1.91zm11.38 1.78c0 1.4-.25 2.47-.77 3.2a2.61 2.61 0 0 1-2.27 1.09c-.99 0-1.74-.36-2.27-1.07a5.32 5.32 0 0 1-.8-3.12v-1.78c0-1.4.26-2.46.78-3.18a2.63 2.63 0 0 1 2.27-1.08c.99 0 1.74.35 2.26 1.05.52.69.79 1.71.8 3.07v1.82zm-.82-1.78c0-1.14-.18-2-.56-2.59a1.85 1.85 0 0 0-1.68-.87c-.74 0-1.3.28-1.67.85a4.7 4.7 0 0 0-.57 2.52v1.96c0 1.13.2 2 .57 2.6.4.6.95.9 1.69.9.72 0 1.28-.29 1.65-.88.38-.58.57-1.44.57-2.58v-1.91zm11.39 1.78c0 1.4-.26 2.47-.77 3.2a2.61 2.61 0 0 1-2.28 1.09c-.98 0-1.74-.36-2.26-1.07a5.32 5.32 0 0 1-.8-3.12v-1.78c0-1.4.25-2.46.77-3.18a2.63 2.63 0 0 1 2.28-1.08c.98 0 1.73.35 2.25 1.05.52.69.8 1.71.81 3.07v1.82zm-.82-1.78c0-1.14-.19-2-.56-2.59a1.85 1.85 0 0 0-1.68-.87c-.74 0-1.3.28-1.67.85a4.7 4.7 0 0 0-.58 2.52v1.96c0 1.13.2 2 .58 2.6.39.6.95.9 1.68.9s1.28-.29 1.66-.88c.37-.58.56-1.44.57-2.58v-1.91zm11.39 1.78c0 1.4-.26 2.47-.78 3.2a2.61 2.61 0 0 1-2.27 1.09c-.99 0-1.74-.36-2.27-1.07a5.32 5.32 0 0 1-.8-3.12v-1.78c0-1.4.26-2.46.78-3.18a2.63 2.63 0 0 1 2.27-1.08c.99 0 1.74.35 2.26 1.05.52.69.79 1.71.8 3.07v1.82zm-.83-1.78c0-1.14-.18-2-.56-2.59a1.85 1.85 0 0 0-1.68-.87c-.73 0-1.3.28-1.66.85a4.7 4.7 0 0 0-.58 2.52v1.96c0 1.13.2 2 .58 2.6.38.6.94.9 1.68.9.73 0 1.28-.29 1.65-.88.38-.58.57-1.44.58-2.58v-1.91z"/>
  <path stroke="#828282" stroke-width=".25" d="M120 78.88h47"/>
  <path fill="#939393" d="M131.94 70.85c0 1.4-.26 2.47-.77 3.2a2.61 2.61 0 0 1-2.28 1.09c-.98 0-1.74-.36-2.26-1.07a5.32 5.32 0 0 1-.81-3.12v-1.78c0-1.4.26-2.46.78-3.18a2.63 2.63 0 0 1 2.28-1.08c.98 0 1.73.35 2.25 1.05.52.69.79 1.71.8 3.07v1.82zm-.82-1.78c0-1.14-.19-2-.56-2.59a1.86 1.86 0 0 0-1.68-.87c-.74 0-1.3.28-1.67.85a4.7 4.7 0 0 0-.58 2.52v1.96c0 1.13.2 2 .58 2.6.39.6.95.9 1.68.9s1.28-.29 1.65-.88c.38-.58.57-1.44.58-2.58v-1.91zm11.38 1.78c0 1.4-.25 2.47-.77 3.2a2.61 2.61 0 0 1-2.27 1.09c-.99 0-1.74-.36-2.27-1.07a5.32 5.32 0 0 1-.8-3.12v-1.78c0-1.4.26-2.46.78-3.18a2.63 2.63 0 0 1 2.27-1.08c.99 0 1.74.35 2.26 1.05.52.69.79 1.71.8 3.07v1.82zm-.82-1.78c0-1.14-.18-2-.56-2.59a1.85 1.85 0 0 0-1.68-.87c-.74 0-1.3.28-1.67.85a4.7 4.7 0 0 0-.57 2.52v1.96c0 1.13.2 2 .57 2.6.4.6.95.9 1.69.9.72 0 1.28-.29 1.65-.88.38-.58.57-1.44.57-2.58v-1.91zm11.39 1.78c0 1.4-.26 2.47-.77 3.2a2.61 2.61 0 0 1-2.28 1.09c-.98 0-1.74-.36-2.26-1.07a5.32 5.32 0 0 1-.8-3.12v-1.78c0-1.4.25-2.46.77-3.18a2.63 2.63 0 0 1 2.28-1.08c.98 0 1.73.35 2.25 1.05.52.69.8 1.71.81 3.07v1.82zm-.82-1.78c0-1.14-.19-2-.56-2.59a1.86 1.86 0 0 0-1.68-.87c-.74 0-1.3.28-1.67.85a4.7 4.7 0 0 0-.58 2.52v1.96c0 1.13.2 2 .58 2.6.39.6.95.9 1.68.9s1.28-.29 1.66-.88c.37-.58.56-1.44.57-2.58v-1.91zm11.38 1.78c0 1.4-.25 2.47-.77 3.2a2.61 2.61 0 0 1-2.27 1.09c-.99 0-1.74-.36-2.27-1.07a5.32 5.32 0 0 1-.8-3.12v-1.78c0-1.4.26-2.46.78-3.18a2.63 2.63 0 0 1 2.27-1.08c.99 0 1.74.35 2.26 1.05.52.69.79 1.71.8 3.07v1.82zm-.81-1.78c0-1.14-.2-2-.57-2.59a1.85 1.85 0 0 0-1.68-.87c-.73 0-1.3.28-1.66.85a4.7 4.7 0 0 0-.58 2.52v1.96c0 1.13.2 2 .57 2.6.4.6.95.9 1.69.9.73 0 1.28-.29 1.65-.88.38-.58.57-1.44.57-2.58v-1.91z"/>
  <path stroke="#939393" stroke-width=".25" d="M174 78.88h47"/>
  <path fill="#939393" d="M185.94 70.85c0 1.4-.26 2.47-.77 3.2a2.61 2.61 0 0 1-2.28 1.09c-.98 0-1.74-.36-2.26-1.07a5.32 5.32 0 0 1-.81-3.12v-1.78c0-1.4.26-2.46.78-3.18a2.63 2.63 0 0 1 2.28-1.08c.98 0 1.73.35 2.25 1.05.52.69.79 1.71.8 3.07v1.82zm-.82-1.78c0-1.14-.19-2-.56-2.59a1.86 1.86 0 0 0-1.68-.87c-.74 0-1.3.28-1.67.85a4.7 4.7 0 0 0-.58 2.52v1.96c0 1.13.2 2 .58 2.6.38.6.95.9 1.68.9s1.28-.29 1.65-.88c.38-.58.57-1.44.58-2.58v-1.91zm11.38 1.78c0 1.4-.25 2.47-.77 3.2a2.61 2.61 0 0 1-2.27 1.09c-.99 0-1.74-.36-2.27-1.07a5.32 5.32 0 0 1-.8-3.12v-1.78c0-1.4.26-2.46.78-3.18a2.63 2.63 0 0 1 2.27-1.08c.99 0 1.74.35 2.26 1.05.52.69.79 1.71.8 3.07v1.82zm-.82-1.78c0-1.14-.18-2-.56-2.59a1.85 1.85 0 0 0-1.68-.87c-.74 0-1.3.28-1.67.85a4.7 4.7 0 0 0-.57 2.52v1.96c0 1.13.2 2 .57 2.6.4.6.95.9 1.69.9.72 0 1.28-.29 1.65-.88.38-.58.57-1.44.57-2.58v-1.91zm11.39 1.78c0 1.4-.26 2.47-.77 3.2a2.61 2.61 0 0 1-2.28 1.09c-.98 0-1.74-.36-2.26-1.07a5.32 5.32 0 0 1-.8-3.12v-1.78c0-1.4.25-2.46.77-3.18a2.63 2.63 0 0 1 2.28-1.08c.98 0 1.73.35 2.25 1.05.52.69.8 1.71.81 3.07v1.82zm-.82-1.78c0-1.14-.19-2-.56-2.59a1.86 1.86 0 0 0-1.68-.87c-.74 0-1.3.28-1.67.85a4.7 4.7 0 0 0-.58 2.52v1.96c0 1.13.2 2 .58 2.6.39.6.95.9 1.68.9s1.28-.29 1.66-.88c.37-.58.56-1.44.57-2.58v-1.91zm11.38 1.78c0 1.4-.25 2.47-.77 3.2a2.61 2.61 0 0 1-2.27 1.09c-.99 0-1.74-.36-2.27-1.07a5.32 5.32 0 0 1-.8-3.12v-1.78c0-1.4.26-2.46.78-3.18a2.63 2.63 0 0 1 2.27-1.08c.99 0 1.74.35 2.26 1.05.52.69.79 1.71.8 3.07v1.82zm-.81-1.78c0-1.14-.2-2-.57-2.59a1.85 1.85 0 0 0-1.68-.87c-.73 0-1.3.28-1.66.85a4.7 4.7 0 0 0-.58 2.52v1.96c0 1.13.2 2 .57 2.6.4.6.95.9 1.69.9.73 0 1.28-.29 1.65-.88.38-.58.57-1.44.57-2.58v-1.91z"/>
  <defs>
    <linearGradient id="paint0_linear" x1="116.45" x2="123.3" y1="112.78" y2="112.78" gradientUnits="userSpaceOnUse">
      <stop offset=".3" stop-color="#00B4E6"/>
      <stop offset="1" stop-color="#088CCB"/>
    </linearGradient>
  </defs>
</svg>