<?xml version="1.0" encoding="UTF-8" standalone="no"?>
<svg
   xmlns:dc="http://purl.org/dc/elements/1.1/"
   xmlns:cc="http://creativecommons.org/ns#"
   xmlns:rdf="http://www.w3.org/1999/02/22-rdf-syntax-ns#"
   xmlns:svg="http://www.w3.org/2000/svg"
   xmlns="http://www.w3.org/2000/svg"
   viewBox="0 0 767.59198 313.07599"
   height="313.07599"
   width="767.59198"
   xml:space="preserve"
   id="svg2"
   version="1.1"><metadata
     id="metadata8"><rdf:RDF><cc:Work
         rdf:about=""><dc:format>image/svg+xml</dc:format><dc:type
           rdf:resource="http://purl.org/dc/dcmitype/StillImage" /></cc:Work></rdf:RDF></metadata><defs
     id="defs6"><clipPath
       id="clipPath18"
       clipPathUnits="userSpaceOnUse"><path
         id="path16"
         d="M 0,234.807 H 575.694 V 0 H 0 Z" /></clipPath></defs><g
     transform="matrix(1.3333333,0,0,-1.3333333,0,313.076)"
     id="g10"><g
       id="g12"><g
         clip-path="url(#clipPath18)"
         id="g14"><g
           transform="translate(169.2058,64.5075)"
           id="g20"><path
             id="path22"
             style="fill:#ffffff;fill-opacity:1;fill-rule:nonzero;stroke:none"
             d="m 0,0 c -7.876,5.077 -10.94,13.999 -9.38,22.749 3.699,5.477 5.654,12.542 5.654,20.63 v 4.91 c 0,4.111 -3.083,7.194 -7.194,7.194 h -16.901 c -3.769,0 -6.852,-3.083 -6.852,-6.851 0,-3.769 3.083,-6.852 6.852,-6.852 h 6.395 v -0.457 c 0,-9.021 -4.454,-15.188 -12.677,-15.188 -8.107,0 -12.675,6.395 -12.675,18.271 v 15.189 c 0,11.876 4.34,18.271 12.904,18.271 4.797,0 8.68,-2.741 11.191,-8.222 1.599,-3.54 4.226,-5.825 8.337,-5.825 4.91,0 8.793,3.883 8.793,8.794 0,0.532 -0.065,1.061 -0.162,1.586 0.021,-0.025 0.041,-0.049 0.062,-0.074 -0.045,0.128 -0.075,0.259 -0.118,0.388 -0.105,0.484 -0.251,0.959 -0.427,1.424 -2.603,9.982 1.665,20.688 11.177,25.578 10.916,5.604 23.449,4.033 32.389,17.897 8.94,13.867 4.946,32.353 -8.915,41.287 -13.87,8.943 -32.349,4.947 -41.29,-8.916 -8.941,-13.863 -2.661,-23.319 -3.261,-35.573 -0.601,-12.248 -11.023,-21.693 -23.272,-21.094 -12.253,0.604 -21.697,11.022 -21.097,23.271 0.601,12.253 8.555,21.011 1.021,35.686 -7.541,14.672 -25.547,20.458 -40.221,12.92 -14.674,-7.537 -20.454,-25.546 -12.923,-40.216 7.542,-14.676 19.375,-12.018 29.064,-20.07 9.43,-7.843 13.276,-20.393 6.63,-30.701 -6.646,-10.311 -20.391,-13.281 -30.702,-6.634 -10.308,6.645 -13.797,17.372 -30.274,18.183 -16.478,0.806 -30.489,-11.891 -31.297,-28.37 -0.81,-16.475 11.891,-30.491 28.367,-31.297 16.479,-0.811 21.002,9.527 31.914,15.131 10.908,5.604 24.296,1.302 29.904,-9.611 5.602,-10.908 1.3,-24.295 -9.61,-29.898 -10.909,-5.606 -21.949,-3.264 -30.885,-17.131 -8.939,-13.865 -4.948,-32.351 8.919,-41.29 13.866,-8.94 32.348,-4.941 41.288,8.92 8.938,13.864 1.926,24.263 2.528,36.516 0.602,12.254 11.021,21.697 23.272,21.098 12.252,-0.603 21.697,-11.022 21.094,-23.274 -0.6,-12.252 -7.822,-21.953 -0.283,-36.629 7.538,-14.673 25.546,-20.459 40.215,-12.92 14.675,7.536 20.457,25.545 12.921,40.218 C 22.938,-6.309 10.306,-6.641 0,0" /></g><g
           transform="translate(225.7712,141.0036)"
           id="g24"><path
             id="path26"
             style="fill:#ffffff;fill-opacity:1;fill-rule:nonzero;stroke:none"
             d="M 0,0 C 4.34,0 7.766,3.426 7.766,7.765 7.766,12.104 4.34,15.53 0,15.53 h -36.657 c -4.682,0 -8.108,-3.426 -8.108,-8.108 V -56.3 c 0,-4.681 3.426,-8.107 8.108,-8.107 H 0 c 4.34,0 7.766,3.426 7.766,7.765 0,4.339 -3.426,7.765 -7.766,7.765 h -27.179 v 17.701 h 22.497 c 4.34,0 7.766,3.426 7.766,7.765 0,4.34 -3.426,7.765 -7.766,7.765 H -27.179 V 0 Z" /></g><g
           transform="translate(289.9558,118.9635)"
           id="g28"><path
             id="path30"
             style="fill:#ffffff;fill-opacity:1;fill-rule:nonzero;stroke:none"
             d="m 0,0 c 9.878,7.594 14.56,16.102 15.53,27.578 0.058,0.686 0.115,1.599 0.115,2.341 0,4.625 -4.054,8.223 -8.793,8.223 -4.911,0 -8.108,-3.54 -8.793,-8.452 C -3.083,21.354 -6.509,15.017 -15.074,9.363 l -7.423,-4.91 v 24.896 c 0,4.91 -3.883,8.793 -8.793,8.793 -4.91,0 -8.793,-3.883 -8.793,-8.793 v -63.495 c 0,-4.91 3.883,-8.792 8.793,-8.792 4.91,0 8.793,3.882 8.793,8.792 v 18.958 l 8.337,5.481 17.586,-28.321 c 1.713,-2.741 4.34,-4.91 7.994,-4.91 4.91,0 8.793,3.882 8.793,8.792 0,1.713 -0.514,3.484 -1.37,4.797 z" /></g><g
           transform="translate(365.6736,118.9635)"
           id="g32"><path
             id="path34"
             style="fill:#ffffff;fill-opacity:1;fill-rule:nonzero;stroke:none"
             d="m 0,0 c 9.878,7.594 14.56,16.102 15.53,27.578 0.058,0.686 0.115,1.599 0.115,2.341 0,4.625 -4.054,8.223 -8.793,8.223 -4.911,0 -8.108,-3.54 -8.793,-8.452 C -3.083,21.354 -6.51,15.017 -15.074,9.363 l -7.423,-4.91 v 24.896 c 0,4.91 -3.883,8.793 -8.793,8.793 -4.91,0 -8.793,-3.883 -8.793,-8.793 v -63.495 c 0,-4.91 3.883,-8.792 8.793,-8.792 4.91,0 8.793,3.882 8.793,8.792 v 18.958 l 8.337,5.481 17.586,-28.321 c 1.713,-2.741 4.34,-4.91 7.994,-4.91 4.91,0 8.793,3.882 8.793,8.792 0,1.713 -0.514,3.484 -1.37,4.797 z" /></g><g
           transform="translate(440.364,108.9137)"
           id="g36"><path
             id="path38"
             style="fill:#ffffff;fill-opacity:1;fill-rule:nonzero;stroke:none"
             d="m 0,0 c 0,-12.104 -4.683,-18.157 -12.677,-18.157 -7.993,0 -12.676,6.053 -12.676,18.157 v 15.303 c 0,12.104 4.683,18.157 12.676,18.157 C -4.683,33.46 0,27.407 0,15.303 Z m -12.677,48.99 c -18.385,0 -30.261,-13.36 -30.261,-32.089 v -18.5 c 0,-18.728 11.876,-32.089 30.261,-32.089 18.386,0 30.263,13.361 30.263,32.089 v 18.5 c 0,18.729 -11.877,32.089 -30.263,32.089" /></g><g
           transform="translate(485.1355,157.1051)"
           id="g40"><path
             id="path42"
             style="fill:#ffffff;fill-opacity:1;fill-rule:nonzero;stroke:none"
             d="m 0,0 c -4.911,0 -8.794,-3.883 -8.794,-8.793 v -63.494 c 0,-4.91 3.883,-8.793 8.794,-8.793 4.91,0 8.793,3.883 8.793,8.793 V -8.793 C 8.793,-3.883 4.91,0 0,0" /></g><g
           transform="translate(566.9011,157.1051)"
           id="g44"><path
             id="path46"
             style="fill:#ffffff;fill-opacity:1;fill-rule:nonzero;stroke:none"
             d="m 0,0 c -4.91,0 -8.793,-3.883 -8.793,-8.793 v -39.17 L -34.03,-5.71 c -2.114,3.54 -5.139,5.71 -9.479,5.71 -4.91,0 -8.793,-3.883 -8.793,-8.793 v -63.494 c 0,-4.91 3.883,-8.793 8.793,-8.793 4.91,0 8.793,3.883 8.793,8.793 v 39.17 L -9.479,-75.37 c 2.114,-3.54 5.14,-5.71 9.479,-5.71 4.911,0 8.793,3.883 8.793,8.793 V -8.793 C 8.793,-3.883 4.911,0 0,0" /></g></g></g></g></svg>