<?xml version="1.0" encoding="UTF-8" standalone="no"?>
<svg
   xmlns:dc="http://purl.org/dc/elements/1.1/"
   xmlns:cc="http://creativecommons.org/ns#"
   xmlns:rdf="http://www.w3.org/1999/02/22-rdf-syntax-ns#"
   xmlns:svg="http://www.w3.org/2000/svg"
   xmlns="http://www.w3.org/2000/svg"
   viewBox="0 0 778.86401 313.07599"
   height="313.07599"
   width="778.86401"
   xml:space="preserve"
   id="svg2"
   version="1.1"><metadata
     id="metadata8"><rdf:RDF><cc:Work
         rdf:about=""><dc:format>image/svg+xml</dc:format><dc:type
           rdf:resource="http://purl.org/dc/dcmitype/StillImage" /></cc:Work></rdf:RDF></metadata><defs
     id="defs6"><clipPath
       id="clipPath18"
       clipPathUnits="userSpaceOnUse"><path
         id="path16"
         d="M 0,234.807 H 584.148 V 0 H 0 Z" /></clipPath></defs><g
     transform="matrix(1.3333333,0,0,-1.3333333,0,313.076)"
     id="g10"><g
       id="g12"><g
         clip-path="url(#clipPath18)"
         id="g14"><g
           transform="translate(169.2061,64.5075)"
           id="g20"><path
             id="path22"
             style="fill:#00b187;fill-opacity:1;fill-rule:nonzero;stroke:none"
             d="m 0,0 c -7.432,4.791 -10.576,13.006 -9.599,21.269 4.58,5.605 7.129,13.14 7.129,21.881 v 4.796 c 0,3.997 -3.083,7.195 -7.08,7.195 h -17.929 c -3.997,0 -7.08,-3.198 -7.08,-7.195 0,-3.997 3.083,-7.08 7.08,-7.08 h 4.568 c -0.685,-8.45 -4.682,-12.333 -10.62,-12.333 -7.08,0 -10.735,5.482 -10.735,15.988 v 15.074 c 0,10.963 4.112,15.987 10.278,15.987 4.568,0 7.651,-2.055 9.707,-6.623 1.941,-4.454 4.91,-6.509 9.821,-6.509 5.367,0 9.935,4.339 9.935,9.706 0,1.257 -0.229,2.399 -0.685,3.54 -0.431,1.156 -0.963,2.259 -1.559,3.324 -1.086,9.031 3.21,18.106 11.748,22.495 10.916,5.604 23.449,4.033 32.389,17.897 8.94,13.867 4.945,32.353 -8.915,41.287 -13.87,8.943 -32.349,4.947 -41.29,-8.916 -8.941,-13.863 -2.661,-23.319 -3.261,-35.573 -0.601,-12.248 -11.023,-21.693 -23.272,-21.094 -12.254,0.604 -21.697,11.022 -21.098,23.271 0.602,12.253 8.556,21.011 1.022,35.686 -7.541,14.672 -25.547,20.458 -40.222,12.92 -14.674,-7.537 -20.454,-25.546 -12.922,-40.216 7.542,-14.676 19.375,-12.018 29.063,-20.07 9.431,-7.843 13.277,-20.393 6.631,-30.701 -6.647,-10.311 -20.391,-13.281 -30.702,-6.634 -10.309,6.645 -13.797,17.372 -30.275,18.183 -16.477,0.806 -30.489,-11.891 -31.296,-28.37 -0.81,-16.475 11.89,-30.491 28.367,-31.297 16.478,-0.811 21.002,9.527 31.913,15.131 10.909,5.604 24.297,1.302 29.904,-9.611 5.602,-10.908 1.3,-24.295 -9.609,-29.898 -10.91,-5.606 -21.95,-3.264 -30.885,-17.131 -8.94,-13.865 -4.948,-32.351 8.919,-41.29 13.866,-8.94 32.347,-4.941 41.288,8.92 8.938,13.864 1.926,24.263 2.528,36.516 0.602,12.254 11.021,21.697 23.272,21.098 12.251,-0.603 21.696,-11.022 21.093,-23.274 -0.599,-12.252 -7.821,-21.953 -0.283,-36.629 7.538,-14.673 25.546,-20.459 40.215,-12.92 14.676,7.536 20.458,25.545 12.922,40.218 C 22.938,-6.309 10.306,-6.641 0,0" /></g><g
           transform="translate(226,138.7194)"
           id="g24"><path
             id="path26"
             style="fill:#00b187;fill-opacity:1;fill-rule:nonzero;stroke:none"
             d="m 0,0 c 4.91,0 8.907,3.883 8.907,8.907 0,4.911 -3.997,8.907 -8.907,8.907 h -35.4 c -6.167,0 -9.822,-3.654 -9.822,-9.82 v -60.297 c 0,-6.166 3.655,-9.82 9.822,-9.82 H 0 c 4.91,0 8.907,3.997 8.907,8.907 0,5.025 -3.997,8.907 -8.907,8.907 h -24.895 v 14.275 h 20.213 c 4.911,0 8.908,3.997 8.908,8.908 0,5.024 -3.997,8.907 -8.908,8.907 H -24.895 V 0 Z" /></g><g
           transform="translate(294.295,118.278)"
           id="g28"><path
             id="path30"
             style="fill:#00b187;fill-opacity:1;fill-rule:nonzero;stroke:none"
             d="m 0,0 c 8.337,5.996 12.733,13.818 14.104,24.039 0.228,1.712 0.399,3.482 0.399,4.967 0,4.796 -4.339,9.821 -9.82,9.821 -6.282,0 -10.05,-4.111 -10.621,-10.163 -0.914,-9.707 -5.482,-14.047 -13.475,-19.3 l -3.654,-2.398 v 21.698 c 0,5.71 -4.454,10.163 -10.164,10.163 -5.71,0 -10.164,-4.453 -10.164,-10.163 v -60.753 c 0,-5.71 4.454,-10.164 10.164,-10.164 5.71,0 10.164,4.454 10.164,10.164 v 16.444 l 6.508,4.225 15.075,-25.351 c 1.941,-3.312 5.024,-5.482 9.135,-5.482 5.71,0 10.278,4.454 10.278,10.164 0,2.055 -0.685,3.882 -1.713,5.595 z" /></g><g
           transform="translate(370.9278,118.278)"
           id="g32"><path
             id="path34"
             style="fill:#00b187;fill-opacity:1;fill-rule:nonzero;stroke:none"
             d="m 0,0 c 8.337,5.996 12.733,13.818 14.104,24.039 0.228,1.712 0.399,3.482 0.399,4.967 0,4.796 -4.339,9.821 -9.82,9.821 -6.282,0 -10.05,-4.111 -10.621,-10.163 -0.914,-9.707 -5.482,-14.047 -13.475,-19.3 l -3.654,-2.398 v 21.698 c 0,5.71 -4.454,10.163 -10.164,10.163 -5.71,0 -10.164,-4.453 -10.164,-10.163 v -60.753 c 0,-5.71 4.454,-10.164 10.164,-10.164 5.71,0 10.164,4.454 10.164,10.164 v 16.444 l 6.508,4.225 15.075,-25.351 c 1.941,-3.312 5.024,-5.482 9.135,-5.482 5.71,0 10.278,4.454 10.278,10.164 0,2.055 -0.685,3.882 -1.713,5.595 z" /></g><g
           transform="translate(441.9649,109.028)"
           id="g36"><path
             id="path38"
             style="fill:#00b187;fill-opacity:1;fill-rule:nonzero;stroke:none"
             d="m 0,0 c 0,-10.963 -3.883,-15.987 -10.734,-15.987 -6.852,0 -10.735,5.024 -10.735,15.987 v 15.074 c 0,10.963 3.883,15.988 10.735,15.988 C -3.883,31.062 0,26.037 0,15.074 Z m -10.734,48.876 c -18.956,0 -31.062,-13.475 -31.062,-32.432 V -1.37 c 0,-18.957 12.106,-32.432 31.062,-32.432 18.957,0 31.061,13.475 31.061,32.432 v 17.814 c 0,18.957 -12.104,32.432 -31.061,32.432" /></g><g
           transform="translate(490.7325,157.1051)"
           id="g40"><path
             id="path42"
             style="fill:#00b187;fill-opacity:1;fill-rule:nonzero;stroke:none"
             d="m 0,0 c -5.71,0 -10.164,-4.454 -10.164,-10.164 v -60.752 c 0,-5.71 4.454,-10.164 10.164,-10.164 5.71,0 10.163,4.454 10.163,10.164 v 60.752 C 10.163,-4.454 5.71,0 0,0" /></g><g
           transform="translate(574.213,157.1051)"
           id="g44"><path
             id="path46"
             style="fill:#00b187;fill-opacity:1;fill-rule:nonzero;stroke:none"
             d="M 0,0 C -5.596,0 -9.936,-4.339 -9.936,-9.821 V -43.053 L -33.003,-5.367 C -35.059,-1.941 -38.256,0 -42.253,0 -48.077,0 -52.759,-4.568 -52.759,-10.164 v -61.095 c 0,-5.481 4.34,-9.821 9.935,-9.821 5.595,0 9.935,4.34 9.935,9.821 v 33.232 l 23.068,-37.686 c 2.055,-3.426 5.254,-5.367 9.25,-5.367 5.824,0 10.507,4.568 10.507,10.164 V -9.821 C 9.936,-4.339 5.596,0 0,0" /></g></g></g></g></svg>